<?xml version="1.0" encoding="UTF-8"?>
<svg version="1.1" xmlns="http://www.w3.org/2000/svg" width="1200" height="934">
<path d="M0 0 C1.39871338 0.24145752 1.39871338 0.24145752 2.82568359 0.48779297 C30.48925809 5.43501528 59.3178249 15.41007807 82.85595703 30.95288086 C85.19521569 32.35040709 85.19521569 32.35040709 88.875 31.375 C89.51179687 31.14167969 90.14859375 30.90835938 90.8046875 30.66796875 C97.12064163 28.74621047 105.00134372 29.15213604 111.0546875 31.82421875 C117.87127884 35.94428701 123.19713912 41.05963826 125.54296875 48.7890625 C127.35700508 57.56465704 126.48697339 66.23408451 122 74 C117.92792518 80.0870134 113.24658238 84.34690588 106 86 C96.41024809 86.89807149 88.20712302 86.92886843 80.40625 81.04296875 C75.46410176 76.87480637 71.70548539 73.39557022 70 67 C69.96261719 65.99582031 69.92523437 64.99164063 69.88671875 63.95703125 C69.67146177 60.28922118 69.33109347 57.43617739 68 54 C64.25404649 50.7995737 60.28336697 48.81683226 55.8046875 46.8203125 C53.33862566 45.6993753 51.00025225 44.36323337 48.625 43.0625 C30.79799112 34.42053278 12.52267569 29.11539482 -7 26 C-7.76248047 25.87544434 -8.52496094 25.75088867 -9.31054688 25.62255859 C-58.70306632 17.7962791 -113.05520864 28.91117912 -154.1953125 57.90625 C-158.21789983 60.83393744 -162.14563367 63.85420648 -166 67 C-166.96357422 67.78624756 -167.92714844 68.57249512 -168.91992188 69.38256836 C-176.42296583 75.580514 -183.43824766 82.15156943 -190.27734375 89.0715332 C-191.89000884 90.70268086 -193.51076062 92.325457 -195.1328125 93.94726562 C-200.12755181 98.95941583 -205.0157009 104.02147418 -209.61767578 109.40161133 C-211.31900532 111.36886751 -213.12944108 113.19394311 -215 115 C-217.62040609 117.58009215 -220.10323412 120.21103607 -222.5 123 C-225.51762353 126.51141648 -228.73359081 129.75307402 -232.03125 133 C-233.93986455 134.93891002 -235.72710552 136.93699551 -237.5 139 C-240.51762353 142.51141648 -243.73359081 145.75307402 -247.03125 149 C-248.93986455 150.93891002 -250.72710552 152.93699551 -252.5 155 C-255.51762353 158.51141648 -258.73359081 161.75307402 -262.03125 165 C-263.93986455 166.93891002 -265.72710552 168.93699551 -267.5 171 C-270.51762353 174.51141648 -273.73359081 177.75307402 -277.03125 181 C-278.93986455 182.93891002 -280.72710552 184.93699551 -282.5 187 C-285.51521492 190.50861373 -288.72831166 193.74795164 -292.0234375 196.9921875 C-294.59584113 199.60526154 -296.97817038 202.35058472 -299.328125 205.1640625 C-301 207 -301 207 -302.734375 208.2734375 C-304.72628009 209.76262369 -305.7928433 210.8006597 -307 213 C-307.42118654 216.3259213 -307.59274682 219.54952572 -307.68261719 222.89453125 C-307.97893113 232.2219789 -310.89738121 238.62575017 -317.265625 245.375 C-320.51729882 248.42161331 -323.63519766 250.21978238 -328 251 C-329.12148438 250.94199219 -330.24296875 250.88398438 -331.3984375 250.82421875 C-337.86128112 250.60201882 -342.7945106 250.59342732 -347.91796875 254.8984375 C-351.5436726 258.36870622 -354.80020513 262.13925657 -358 266 C-359.22774243 267.39708622 -360.45656881 268.79322249 -361.6875 270.1875 C-362.19667969 270.78949219 -362.70585938 271.39148438 -363.23046875 272.01171875 C-365.99724389 275.12052349 -368.98595579 278.00638823 -371.94726562 280.92773438 C-375.24091552 284.19412648 -378.31504478 287.57920522 -381.32421875 291.10546875 C-383.76532539 293.865228 -386.402906 296.41210976 -389.02734375 298.99609375 C-391.57337829 301.58246151 -393.92021557 304.3153528 -396.28515625 307.06640625 C-398.47156824 309.53172273 -400.80636893 311.81944667 -403.1574707 314.1262207 C-404.93024024 315.92905709 -406.58688264 317.78581022 -408.234375 319.703125 C-411.96371919 323.99226505 -415.83767295 328.12810102 -419.75 332.25 C-425.29722756 338.11821524 -430.7946139 344.02384453 -436.23828125 349.98828125 C-440.57910656 354.73452475 -444.98103597 359.42411841 -449.375 364.12109375 C-451.81828977 366.73295465 -454.25531266 369.35045427 -456.6875 371.97265625 C-459.61008862 375.12225724 -462.54253331 378.2622691 -465.48681641 381.39160156 C-466.78974598 382.77651606 -468.08862538 384.16523895 -469.38671875 385.5546875 C-487.44753293 404.3165684 -510.87392455 417.57889446 -534 429 C-535.3725989 429.69621438 -536.74501651 430.39278637 -538.1171875 431.08984375 C-560.6851978 442.33663743 -587.02063865 447.76304227 -612 450 C-613.02996094 450.12117188 -614.05992187 450.24234375 -615.12109375 450.3671875 C-662.06607682 455.07892387 -709.24170435 441.07958861 -750.27514648 419.25830078 C-751.34192627 418.69868652 -752.40870605 418.13907227 -753.5078125 417.5625 C-754.95438232 416.78712891 -754.95438232 416.78712891 -756.43017578 415.99609375 C-759.15975548 414.63373308 -759.15975548 414.63373308 -762.6875 416.125 C-763.780625 416.74375 -764.87375 417.3625 -766 418 C-774.49523162 419.3239322 -781.98939728 416.71936287 -788.8125 411.75 C-793.71441895 407.70356429 -796.78327277 403.33804273 -798 397 C-798.78062536 387.52097775 -798.46369047 380.06688925 -793 372 C-792.62746094 371.40574219 -792.25492188 370.81148437 -791.87109375 370.19921875 C-788.07060993 364.86265087 -782.54192752 362.7083855 -776.32421875 361.46484375 C-767.14387051 360.3351545 -759.96968093 361.34313312 -752.1875 366.5 C-747.01035894 370.58451497 -743.66818879 374.55146376 -742 381 C-741.64168641 385.37239423 -741.69153167 389.6266046 -742 394 C-741.13918823 394.17982422 -741.13918823 394.17982422 -740.26098633 394.36328125 C-737.8655842 395.03785298 -735.99432122 395.97422548 -733.82421875 397.1875 C-684.64532854 424.12572968 -629.4463097 431.51518607 -575.3046875 415.94921875 C-566.27266161 413.23141247 -557.61560454 409.82129483 -549 406 C-548.18950195 405.64679688 -547.37900391 405.29359375 -546.54394531 404.9296875 C-535.25425286 399.97345457 -524.95975919 394.2680084 -515 387 C-514.43587402 386.59136719 -513.87174805 386.18273437 -513.29052734 385.76171875 C-506.02539799 380.4565533 -499.29532332 374.7040075 -492.73828125 368.55078125 C-489.73865165 365.75654711 -486.65589035 363.08092012 -483.5234375 360.4375 C-481.75657708 358.87805417 -481.75657708 358.87805417 -480 356 C-479.34 356 -478.68 356 -478 356 C-477.78730469 355.45859375 -477.57460938 354.9171875 -477.35546875 354.359375 C-475.50981313 351.14676406 -472.96037436 348.79447963 -470.3125 346.25 C-466.23244053 342.25721453 -462.34325033 338.20906107 -458.640625 333.859375 C-456.21276113 331.10779595 -453.58250081 328.57353926 -450.96875 326 C-449.06013545 324.06108998 -447.27289448 322.06300449 -445.5 320 C-442.48237647 316.48858352 -439.26640919 313.24692598 -435.96875 310 C-434.06013545 308.06108998 -432.27289448 306.06300449 -430.5 304 C-427.48237647 300.48858352 -424.26640919 297.24692598 -420.96875 294 C-419.06013545 292.06108998 -417.27289448 290.06300449 -415.5 288 C-412.48237647 284.48858352 -409.26640919 281.24692598 -405.96875 278 C-404.06013545 276.06108998 -402.27289448 274.06300449 -400.5 272 C-397.48237647 268.48858352 -394.26640919 265.24692598 -390.96875 262 C-389.06013545 260.06108998 -387.27289448 258.06300449 -385.5 256 C-382.4871937 252.49418903 -379.27696816 249.2571702 -375.984375 246.015625 C-373.37245773 243.36257517 -370.94635721 240.57572633 -368.546875 237.73046875 C-367 236 -367 236 -364.5 234.0625 C-362.65628462 231.52739135 -362.94335681 230.89123838 -363.375 227.875 C-363.50003906 227.08996094 -363.62507813 226.30492187 -363.75390625 225.49609375 C-364.59910737 216.92333952 -360.79417826 209.29105947 -356.25 202.3125 C-351.26924187 197.19338748 -345.16858302 193.73773767 -338 193 C-334.31390972 193.12993639 -330.89239678 193.6517476 -327.4375 195 C-324.3160408 195 -323.81943209 194.20827505 -321.625 192.0625 C-320.39707502 190.72607303 -319.18911664 189.37107199 -318 188 C-317.443125 187.36191406 -316.88625 186.72382813 -316.3125 186.06640625 C-315.16611271 184.74753013 -314.02299305 183.42580807 -312.8828125 182.1015625 C-310.83277726 179.81334889 -308.68704908 177.65739418 -306.5 175.5 C-303.71378859 172.7514401 -301.04691608 169.97140209 -298.5 167 C-295.24835372 163.20641267 -291.74286906 159.72607353 -288.1875 156.21875 C-286.20279658 154.20569368 -284.33903084 152.14553597 -282.5 150 C-279.24835372 146.20641267 -275.74286906 142.72607353 -272.1875 139.21875 C-270.20279658 137.20569368 -268.33903084 135.14553597 -266.5 133 C-263.24835372 129.20641267 -259.74286906 125.72607353 -256.1875 122.21875 C-254.20279658 120.20569368 -252.33903084 118.14553597 -250.5 116 C-247.24835372 112.20641267 -243.74286906 108.72607353 -240.1875 105.21875 C-238.20279658 103.20569368 -236.33903084 101.14553597 -234.5 99 C-231.24835372 95.20641267 -227.74286906 91.72607353 -224.1875 88.21875 C-221.60057982 85.59487382 -219.21616728 82.83608366 -216.8203125 80.0390625 C-214.03596203 76.92011198 -211.03650443 74.02646474 -208.05859375 71.09375 C-206.40015004 69.40698372 -204.9005479 67.72720879 -203.4375 65.875 C-200.89465846 62.87575101 -198.19604854 60.43827037 -195.20703125 57.8984375 C-192.91410875 55.92611833 -190.71342795 53.87340602 -188.5 51.8125 C-177.3381201 41.77877335 -165.11942761 33.25276847 -152 26 C-151.09072754 25.49291504 -150.18145508 24.98583008 -149.24462891 24.46337891 C-126.94388717 12.13042039 -104.94898488 4.96547946 -80 0 C-79.09233887 -0.18079102 -78.18467773 -0.36158203 -77.24951172 -0.54785156 C-52.18346718 -5.28867518 -25.0412163 -4.42472448 0 0 Z M-346 211 C-350.24523565 215.68439796 -350.27867207 220.27022393 -350.22265625 226.3359375 C-349.87230365 230.52787562 -348.14192344 232.66775598 -345.5 235.75 C-342.08083753 238.59930205 -337.82086298 238.45357608 -333.578125 238.41015625 C-329.21396897 237.7158587 -326.6748621 235.40791468 -324 232 C-321.87716198 227.66202666 -321.57217384 223.79165302 -322 219 C-323.7313913 214.35258124 -325.676182 211.48389544 -330 209 C-335.99852552 207.53547705 -340.78108384 207.3085715 -346 211 Z " fill="#21CBCB" transform="translate(933,251)"/>
<path d="M0 0 C3.43257625 2.52189275 5.74607445 4.34214005 6.4609375 8.65234375 C6.37922376 17.4910464 6.37922376 17.4910464 3.0625 21.25 C-2.36296796 25.67108381 -8.29408821 26.90771851 -15 28.5625 C-59.99913143 40.22521976 -99.3226367 61.00577333 -132.9375 93.25 C-133.76121094 94.03246094 -134.58492188 94.81492187 -135.43359375 95.62109375 C-141.09238309 101.12296692 -146.04168255 107.06792509 -150.9375 113.25 C-151.82357297 114.34557469 -152.71031485 115.44060865 -153.59765625 116.53515625 C-183.62061849 153.81145362 -200.78919909 198.19072394 -207.9375 245.25 C-208.08920654 246.08539307 -208.24091309 246.92078613 -208.3972168 247.78149414 C-209.22187896 252.44813536 -209.22187896 252.44813536 -207.42578125 256.66796875 C-206.70777344 257.25191406 -205.98976562 257.83585937 -205.25 258.4375 C-204.51136719 259.09234375 -203.77273437 259.7471875 -203.01171875 260.421875 C-201.98498047 261.32679688 -201.98498047 261.32679688 -200.9375 262.25 C-195.90989821 268.46834958 -194.62216598 274.81966224 -195 282.6875 C-195.70793307 288.49743347 -197.53629007 293.46597492 -200.9375 298.25 C-202.20023729 299.1662545 -203.49248123 300.04338818 -204.8125 300.875 C-207.40888237 302.95437844 -207.88856431 303.9105362 -208.37109375 307.2578125 C-207.14556866 345.1304912 -189.07058712 385.42267122 -167.9375 416.25 C-167.3501709 417.11334961 -167.3501709 417.11334961 -166.75097656 417.99414062 C-160.66797124 426.88581802 -154.01239388 435.13306748 -146.9375 443.25 C-146.32261719 443.97703125 -145.70773438 444.7040625 -145.07421875 445.453125 C-137.68459291 454.13020355 -129.58932769 461.98308052 -120.671875 469.07421875 C-118.86919855 470.50863415 -117.08706347 471.96930634 -115.328125 473.45703125 C-107.92621574 479.70923567 -100.09300927 485.04929447 -91.9375 490.25 C-91.35548828 490.62624512 -90.77347656 491.00249023 -90.17382812 491.39013672 C-66.86672597 506.37043932 -41.52074579 515.79263128 -14.8359375 522.671875 C-12.86870999 523.19385699 -10.90248755 523.71964805 -8.9375 524.25 C-8.06899414 524.47880859 -7.20048828 524.70761719 -6.30566406 524.94335938 C-2.59372872 526.0255651 -0.31698175 526.90746933 2.58984375 529.53125 C5.29790111 534.5307405 4.87713446 539.7388208 4.0625 545.25 C1.9375 548.375 1.9375 548.375 -0.9375 550.25 C-2.175 551.2090625 -2.175 551.2090625 -3.4375 552.1875 C-12.28150217 554.87228637 -23.53735751 550.55863223 -32.25 548.1875 C-33.3630249 547.88513428 -34.4760498 547.58276855 -35.62280273 547.27124023 C-90.1670025 532.01366326 -143.76281852 498.00931926 -177.9375 452.25 C-179.13597008 450.7319379 -180.33445262 449.2138856 -181.53320312 447.69604492 C-208.96338309 412.67021779 -232.75561711 366.37942681 -236.4765625 321.39453125 C-237.10071599 309.69169622 -237.10071599 309.69169622 -243.22924805 300.22412109 C-244.82945362 298.91233708 -246.45065735 297.6444048 -248.10546875 296.40234375 C-251.94229323 293.48635715 -253.94011559 290.97148909 -254.9375 286.25 C-255.8004761 278.26747107 -255.97104722 270.82893452 -250.9375 264.25 C-247.32491892 259.94400881 -244.29811855 257.14414652 -238.9375 255.25 C-238.85113281 254.18007813 -238.76476562 253.11015625 -238.67578125 252.0078125 C-236.77887108 230.62229507 -232.45319111 209.69745259 -225.9375 189.25 C-225.68274902 188.43934082 -225.42799805 187.62868164 -225.16552734 186.79345703 C-214.58054605 153.55197032 -197.53861828 122.79673724 -174.9375 96.25 C-174.08486089 95.21312396 -173.23335305 94.17531692 -172.3828125 93.13671875 C-159.79570727 77.92339851 -145.8539426 63.95211359 -129.9375 52.25 C-128.99390625 51.51136719 -128.0503125 50.77273437 -127.078125 50.01171875 C-103.2498629 31.48228289 -31.12590337 -16.64416727 0 0 Z M-237.3125 271.9375 C-239.64644291 276.69515285 -239.85823618 280.49763891 -238.20703125 285.43359375 C-236.78400827 288.59909384 -235.34794035 290.8637032 -232.8125 293.25 C-227.69866176 295.02872634 -222.66926579 295.35086084 -217.58203125 293.30078125 C-214.5607743 291.55626676 -212.40814496 289.90890294 -210.375 287.0625 C-209.46106949 281.18723246 -210.01012355 276.04079591 -212.75 270.75 C-215.39488087 267.727279 -217.30442005 266.45750356 -221.3046875 265.94921875 C-228.16059892 265.91718178 -232.56691777 266.56749905 -237.3125 271.9375 Z " fill="#17B5ED" transform="translate(258.9375,197.75)"/>
<path d="M0 0 C0.63266785 0.17628937 1.26533569 0.35257874 1.91717529 0.53421021 C15.1982277 4.25830737 27.93303413 9.07555672 40.5625 14.625 C41.44679688 15.01333008 42.33109375 15.40166016 43.2421875 15.80175781 C54.15929108 20.65887343 64.50948501 26.1712126 74.5625 32.625 C75.18608398 33.02332031 75.80966797 33.42164063 76.45214844 33.83203125 C85.50708363 39.65009262 94.19803363 45.85136804 102.5625 52.625 C103.10696777 53.06505371 103.65143555 53.50510742 104.21240234 53.95849609 C117.40343908 64.71828897 130.05441921 76.62264369 140.546875 90.05859375 C141.92795981 91.81706802 143.3584117 93.53755393 144.828125 95.22265625 C157.51820012 109.77530691 167.7471038 126.48977973 176.5625 143.625 C176.9745166 144.42309082 177.3865332 145.22118164 177.81103516 146.04345703 C187.81125825 165.64819712 195.21181285 186.29232589 200.5625 207.625 C200.74119629 208.31432617 200.91989258 209.00365234 201.10400391 209.71386719 C201.64492887 211.80622555 202.17087797 213.90151305 202.6875 216 C202.85596436 216.68376709 203.02442871 217.36753418 203.19799805 218.07202148 C204.11084261 221.99520432 204.73197073 225.84525034 205.125 229.85546875 C205.73937957 239.23841878 205.73937957 239.23841878 209.796875 247.38671875 C212.38747499 249.40081984 212.38747499 249.40081984 215.11328125 251.02734375 C219.66643638 253.99742421 221.88080997 258.57992992 223.5625 263.625 C224.41822031 272.34112257 223.84205897 279.43823193 218.5625 286.625 C216.05873541 289.20183165 213.37861778 291.40391966 210.5625 293.625 C208.29357817 295.42071091 207.62280795 296.36843281 206.94995117 299.23095703 C206.83627197 300.27106934 206.72259277 301.31118164 206.60546875 302.3828125 C206.4660083 303.55279785 206.32654785 304.7227832 206.18286133 305.92822266 C206.04001709 307.18940918 205.89717285 308.4505957 205.75 309.75 C201.8709255 340.32534513 193.20327351 369.94863238 179.5625 397.625 C179.15306152 398.46691895 178.74362305 399.30883789 178.32177734 400.17626953 C167.19692064 422.87199668 153.02007764 443.66107023 135.82421875 462.1796875 C133.8720112 464.2903644 131.98943722 466.43727557 130.125 468.625 C122.35737608 477.52047564 113.86341023 485.36376307 104.5625 492.625 C103.95696289 493.10694824 103.35142578 493.58889648 102.72753906 494.08544922 C84.91464727 508.2553971 65.95702061 519.55446004 45.5625 529.625 C44.80710937 530.00108398 44.05171875 530.37716797 43.2734375 530.76464844 C-8.26833591 556.08383141 -8.26833591 556.08383141 -27.4375 551.625 C-31.1653067 549.98476505 -34.40604224 548.24489595 -36.62890625 544.75390625 C-38.377043 540.15132399 -38.50562327 535.1141507 -36.55078125 530.55859375 C-32.16148763 524.45576208 -25.38900007 523.32769536 -18.4375 521.625 C34.25659136 508.56176712 83.51001603 481.63866396 117.5625 438.625 C118.5190038 437.4568329 119.47743909 436.29024544 120.4375 435.125 C151.60751837 397.10850388 169.21057509 351.96947594 176.5625 303.625 C176.69897949 302.84785645 176.83545898 302.07071289 176.97607422 301.27001953 C177.39159239 298.8959522 177.39159239 298.8959522 177.5625 295.625 C175.26943027 293.4695079 175.26943027 293.4695079 173.39453125 292.20703125 C167.79893639 287.37501437 164.31655321 279.93169509 163.375 272.6875 C163.1640066 264.22555427 165.12454301 255.63289001 171.0625 249.375 C173.51288669 247.12509949 175.34987231 246.35091432 178.5625 245.625 C171.84392991 206.58965687 161.29875269 169.67813295 138.5625 136.625 C137.75812536 135.4121138 136.95482968 134.19851166 136.15234375 132.984375 C127.90279287 120.61913075 118.98288157 108.49294662 108.1875 98.21484375 C106.5625 96.625 106.5625 96.625 104.0625 93.5625 C100.87633622 89.81875756 97.31940148 86.78179742 93.5625 83.625 C92.67433594 82.86058594 91.78617188 82.09617187 90.87109375 81.30859375 C79.14240511 71.32905708 66.62682868 62.74057248 53.45605469 54.77587891 C51.74442252 53.73557024 50.04706599 52.67186206 48.3515625 51.60546875 C29.58019497 40.22677559 7.31808084 31.37243055 -14.1171875 26.5234375 C-14.84921387 26.35706787 -15.58124023 26.19069824 -16.33544922 26.01928711 C-18.27997439 25.59673117 -20.23354338 25.21638747 -22.1875 24.83984375 C-26.56224396 23.20457287 -27.83880749 21.4848227 -30.4375 17.625 C-32.02794245 13.10600246 -31.66081219 9.34194965 -30.25 4.8125 C-23.20131597 -7.58346157 -11.54422775 -3.24896057 0 0 Z M179.625 259.125 C176.86265829 262.78373075 176.92730302 266.55132425 177.1328125 271 C177.73085305 274.65348407 179.14377639 276.86074445 181.5625 279.625 C182.078125 280.223125 182.59375 280.82125 183.125 281.4375 C187.09329865 284.71565976 192.73308229 284.01850811 197.5625 283.625 C201.77689659 282.71319699 204.74463928 281.33800678 208 278.5 C210.14355447 274.55585978 210.7547438 271.10043559 210.5625 266.625 C208.98965401 261.38218003 206.72313228 258.16153744 202.5625 254.625 C194.20587583 251.83945861 186.3094729 253.43608689 179.625 259.125 Z " fill="#2CE1A7" transform="translate(974.4375,200.375)"/>
<path d="M0 0 C0.67546875 0.46535156 1.3509375 0.93070312 2.046875 1.41015625 C2.63984375 1.78269531 3.2328125 2.15523438 3.84375 2.5390625 C9.0264673 6.22084435 11.12553883 11.63066044 12.58203125 17.60546875 C13.81979692 25.54424169 12.65570037 33.38759317 8.359375 40.22265625 C3.90312942 46.27274149 -0.56357589 50.5082416 -7.953125 52.41015625 C-10.03088176 52.55413616 -12.08788763 52.57834036 -14.17041016 52.58422852 C-22.33770236 52.44599352 -22.33770236 52.44599352 -29.078125 56.47265625 C-30.072777 57.75785134 -31.03145137 59.07165831 -31.953125 60.41015625 C-33.06394021 61.71404173 -34.18949936 63.00548464 -35.328125 64.28515625 C-35.90304687 64.95289063 -36.47796875 65.620625 -37.0703125 66.30859375 C-39.12034774 68.59680736 -41.26607592 70.75276207 -43.453125 72.91015625 C-46.8819529 76.29257024 -50.07361018 79.79086067 -53.20703125 83.4453125 C-55.67915918 86.22714773 -58.33743047 88.80391576 -60.98828125 91.4140625 C-62.87543244 93.33122802 -64.63997875 95.30590947 -66.390625 97.34765625 C-69.66443153 101.15839688 -73.18676471 104.6609379 -76.76171875 108.1875 C-79.37413568 110.83717065 -81.78615121 113.62188428 -84.20703125 116.4453125 C-86.67915918 119.22714773 -89.33743047 121.80391576 -91.98828125 124.4140625 C-93.87543244 126.33122802 -95.63997875 128.30590947 -97.390625 130.34765625 C-100.66443153 134.15839688 -104.18676471 137.6609379 -107.76171875 141.1875 C-110.37413568 143.83717065 -112.78615121 146.62188428 -115.20703125 149.4453125 C-117.67915918 152.22714773 -120.33743047 154.80391576 -122.98828125 157.4140625 C-124.87543244 159.33122802 -126.63997875 161.30590947 -128.390625 163.34765625 C-130.95977771 166.33817341 -133.64629756 169.14132309 -136.453125 171.91015625 C-139.23933641 174.65871615 -141.90620892 177.43875416 -144.453125 180.41015625 C-147.70357151 184.20234384 -151.20762069 187.68151156 -154.76171875 191.1875 C-157.37413568 193.83717065 -159.78615121 196.62188428 -162.20703125 199.4453125 C-164.67793889 202.22577457 -167.3347944 204.80133843 -169.984375 207.41015625 C-171.89298955 209.34906627 -173.68023052 211.34715176 -175.453125 213.41015625 C-178.46954423 216.92017136 -181.68407632 220.16066901 -184.98046875 223.40625 C-187.52650329 225.99261776 -189.87334057 228.72550905 -192.23828125 231.4765625 C-193.91316799 233.36510222 -195.65260087 235.14171273 -197.453125 236.91015625 C-202.01696891 241.40188525 -206.39625501 246.07485127 -209.953125 251.41015625 C-209.61494366 253.8063564 -209.61494366 253.8063564 -208.953125 256.41015625 C-208.22066692 266.62231222 -209.13576802 273.36860711 -215.828125 281.22265625 C-219.61073919 285.41319942 -223.36087976 288.28043621 -228.953125 289.41015625 C-230.94998321 289.42849474 -232.94690525 289.4453312 -234.94384766 289.44555664 C-243.5529639 289.45208687 -243.5529639 289.45208687 -250.578125 293.97265625 C-251.74124312 295.42204069 -252.86775216 296.90167197 -253.953125 298.41015625 C-255.08678161 299.73318799 -256.23262084 301.04588183 -257.390625 302.34765625 C-257.95652344 303.00636719 -258.52242187 303.66507813 -259.10546875 304.34375 C-261.14223092 306.62165103 -263.27786575 308.76434213 -265.453125 310.91015625 C-268.23933641 313.65871615 -270.90620892 316.43875416 -273.453125 319.41015625 C-276.70357151 323.20234384 -280.20762069 326.68151156 -283.76171875 330.1875 C-285.7678269 332.22221575 -287.65426016 334.30601062 -289.515625 336.47265625 C-295.48446908 343.3839494 -301.93445177 349.36788506 -309.0625 355.07421875 C-310.95202122 356.60115617 -312.81812638 358.15765744 -314.65625 359.74609375 C-327.92324173 371.19721231 -342.74744492 380.74346633 -357.953125 389.41015625 C-359.05785156 390.05082031 -360.16257812 390.69148438 -361.30078125 391.3515625 C-390.17823043 407.46693718 -423.56865736 419.0855545 -456.609375 422.0625 C-458.23625244 422.21851685 -458.23625244 422.21851685 -459.89599609 422.37768555 C-461.95311262 422.56029133 -464.01395579 422.70625441 -466.07666016 422.80786133 C-470.27389763 423.16919125 -472.95178085 423.44439994 -476.05517578 426.4375 C-477.91888636 428.81342138 -477.91888636 428.81342138 -479.45019531 431.25878906 C-482.18460239 435.17295332 -485.81955492 436.73639728 -490.328125 438.16015625 C-491.194375 438.24265625 -492.060625 438.32515625 -492.953125 438.41015625 C-493.90445313 438.50490234 -493.90445313 438.50490234 -494.875 438.6015625 C-503.3506006 439.06741998 -510.95993811 436.42931606 -517.453125 430.97265625 C-524.0922184 424.91026376 -525.3443917 418.11204869 -525.953125 409.41015625 C-525.81830255 400.29125573 -521.92486257 394.1030093 -515.953125 387.41015625 C-510.57850166 382.6197311 -504.26886915 381.46556523 -497.21484375 381.375 C-489.08291495 381.84658286 -481.33538106 383.78113347 -475.328125 389.53515625 C-472.953125 392.41015625 -472.953125 392.41015625 -472.953125 394.41015625 C-454.24176752 391.87053859 -436.02030664 389.07016042 -417.953125 383.41015625 C-416.48984208 382.97828901 -415.0263079 382.54727198 -413.5625 382.1171875 C-389.13548753 374.69590169 -365.99315814 362.96386949 -345.078125 348.41015625 C-344.13428955 347.75370117 -344.13428955 347.75370117 -343.17138672 347.08398438 C-332.12774535 339.16279268 -322.2107128 329.98629872 -312.67578125 320.33862305 C-311.06311616 318.70747539 -309.44236438 317.08469925 -307.8203125 315.46289062 C-302.82557319 310.45074042 -297.9374241 305.38868207 -293.33544922 300.00854492 C-291.63411968 298.04128874 -289.82368392 296.21621314 -287.953125 294.41015625 C-285.35330317 291.85025491 -282.89044102 289.24236085 -280.515625 286.47265625 C-277.16630739 282.56769147 -273.55793313 278.97593352 -269.87109375 275.390625 C-266.11566236 271.51281703 -265.72835275 269.11140552 -265.578125 263.84765625 C-264.90523328 253.29845057 -262.21239873 246.51069981 -254.37109375 239.2578125 C-249.00544399 235.15772795 -244.06399993 234.41210768 -237.453125 234.34765625 C-232.54391711 234.00578941 -230.59106933 232.62215147 -227.328125 228.97265625 C-225.85513665 227.13011033 -224.39690107 225.27568052 -222.953125 223.41015625 C-221.46762254 221.73055504 -219.96768913 220.0635991 -218.453125 218.41015625 C-216.22483386 215.93513391 -213.9973366 213.45943871 -211.7734375 210.98046875 C-201.99177989 200.08488572 -192.04541053 189.35895714 -182 178.70703125 C-178.28433789 174.76553593 -174.58398528 170.81004491 -170.890625 166.84765625 C-166.08646878 161.69395789 -161.27374008 156.54846408 -156.453125 151.41015625 C-151.61253581 146.25022913 -146.77863571 141.08418741 -141.953125 135.91015625 C-134.00435369 127.38793546 -126.03099831 118.88883728 -118.05761719 110.38964844 C-111.3481322 103.23724748 -104.6421603 96.08169171 -97.953125 88.91015625 C-90.00431331 80.38797296 -82.03099845 71.88883743 -74.05761719 63.38964844 C-72.16846963 61.37579181 -70.27949115 59.36177682 -68.390625 57.34765625 C-67.47289307 56.36913696 -67.47289307 56.36913696 -66.53662109 55.37084961 C-61.46232673 49.95822429 -56.39953776 44.53491245 -51.34350586 39.10522461 C-49.23840002 36.84654729 -47.13656733 34.59359858 -44.953125 32.41015625 C-44.74989942 30.06144915 -44.63946014 27.70434115 -44.578125 25.34765625 C-44.11761383 15.80055645 -41.52817054 9.11033548 -34.90625 2.140625 C-25.62440697 -6.08308793 -10.40622244 -6.26817761 0 0 Z M-511.328125 402.47265625 C-513.76683653 407.22711906 -513.71373551 412.21134423 -512.953125 417.41015625 C-511.069345 421.62982345 -509.65208521 423.0145184 -505.640625 425.28515625 C-499.65974371 427.1098319 -494.66979595 427.01994082 -488.953125 424.41015625 C-484.30387713 420.32220117 -484.30387713 420.32220117 -482.6796875 414.6171875 C-482.31517496 407.04200613 -482.31517496 407.04200613 -485.140625 400.22265625 C-489.31886589 396.04441536 -492.12292555 395.32008751 -497.890625 395.03515625 C-504.30375267 395.19715205 -507.41330852 397.42460342 -511.328125 402.47265625 Z " fill="#1FC6D2" transform="translate(800.953125,333.58984375)"/>
<path d="M0 0 C8.35798191 -0.47337243 15.988098 2.15470948 22.51953125 7.375 C28.05081248 12.69092397 30.59497644 19.27772896 31.109375 26.875 C30.9952543 36.52635067 27.49230688 44.77722437 20.64453125 51.625 C12.47780034 56.60471397 3.86190162 58.29370483 -5.66796875 56.5625 C-11.95814075 54.87294382 -17.7567159 51.21568053 -21.91796875 46.1875 C-21.91796875 45.5275 -21.91796875 44.8675 -21.91796875 44.1875 C-66.18241459 49.88299074 -107.57718303 62.11500934 -144.91796875 87.1875 C-145.54155273 87.60451172 -146.16513672 88.02152344 -146.80761719 88.45117188 C-160.58987812 97.76527758 -172.5514173 108.64672334 -184.29296875 120.375 C-184.81534119 120.89628479 -185.33771362 121.41756958 -185.87591553 121.95465088 C-191.25547255 127.33547621 -196.53457404 132.75770245 -201.48681641 138.5402832 C-203.36186016 140.69840675 -205.36669294 142.6974563 -207.41796875 144.6875 C-210.8173178 148.0409119 -213.97979666 151.50625657 -217.08203125 155.1328125 C-219.94322834 158.33491818 -223.02078597 161.31125777 -226.09765625 164.3046875 C-229.32150096 167.63922216 -229.05786825 170.15057256 -229.23046875 174.6875 C-229.87351296 184.07402586 -232.24917614 191.56891825 -238.8125 198.49609375 C-244.33656416 202.93379278 -250.6031755 204.26390201 -257.54296875 204.3125 C-262.41104115 204.60983965 -264.30662975 206.01221184 -267.54296875 209.625 C-269.0159571 211.46754592 -270.47419268 213.32197573 -271.91796875 215.1875 C-273.40347121 216.86710121 -274.90340462 218.53405715 -276.41796875 220.1875 C-278.63540716 222.65004386 -280.85170943 225.11351646 -283.0625 227.58203125 C-293.53272483 239.25963335 -304.25324348 250.7029644 -314.99023438 262.13476562 C-318.15524796 265.50500805 -321.31804731 268.87732538 -324.48046875 272.25 C-325.10155518 272.91233643 -325.7226416 273.57467285 -326.36254883 274.25708008 C-330.553789 278.72821003 -334.73790785 283.20591878 -338.91796875 287.6875 C-346.86678044 296.20968329 -354.8400953 304.70881882 -362.81347656 313.20800781 C-369.52296155 320.36040877 -376.22893345 327.51596454 -382.91796875 334.6875 C-390.86678044 343.20968329 -398.8400953 351.70881882 -406.81347656 360.20800781 C-414.09209405 367.96711166 -421.36373216 375.73254898 -428.62011719 383.51245117 C-433.15055276 388.36842317 -437.68872391 393.2171046 -442.23046875 398.0625 C-442.88337891 398.75923828 -443.53628906 399.45597656 -444.20898438 400.17382812 C-444.81033203 400.81513672 -445.41167969 401.45644531 -446.03125 402.1171875 C-446.56532471 402.68679199 -447.09939941 403.25639648 -447.6496582 403.84326172 C-448.3958602 404.63413529 -449.14910646 405.41863771 -449.91796875 406.1875 C-450.05181042 408.51931936 -450.14941838 410.85324938 -450.23046875 413.1875 C-450.81295813 423.87025437 -454.21161192 430.7874628 -461.91796875 438.1875 C-468.98656741 444.14700891 -475.01391417 444.72619261 -484.08203125 444.53125 C-489.59168319 444.03751337 -493.40413585 442.28973425 -497.91796875 439.1875 C-498.58570313 438.74148438 -499.2534375 438.29546875 -499.94140625 437.8359375 C-504.74905357 434.20484522 -507.51165765 430.05406405 -508.91796875 424.1875 C-509.97717681 414.13048326 -509.3523996 406.14560969 -503.26953125 397.97265625 C-499.23486279 393.10110241 -495.30422629 389.35726004 -488.91796875 388.1875 C-486.93798164 388.1875 -484.95796364 388.18869664 -482.97802734 388.20288086 C-476.39066034 388.15780112 -471.66025154 388.04289578 -466.79296875 383.125 C-465.46215625 381.51065548 -464.16816784 379.86504952 -462.91796875 378.1875 C-461.74060842 376.82450834 -460.55353736 375.46982535 -459.35546875 374.125 C-458.79730469 373.47402344 -458.23914063 372.82304688 -457.6640625 372.15234375 C-455.19193457 369.37050852 -452.53366328 366.79374049 -449.8828125 364.18359375 C-447.99566131 362.26642823 -446.231115 360.29174678 -444.48046875 358.25 C-441.20666222 354.43925937 -437.68432904 350.93671835 -434.109375 347.41015625 C-431.49695807 344.7604856 -429.08494254 341.97577197 -426.6640625 339.15234375 C-424.19193457 336.37050852 -421.53366328 333.79374049 -418.8828125 331.18359375 C-416.99566131 329.26642823 -415.231115 327.29174678 -413.48046875 325.25 C-410.20666222 321.43925937 -406.68432904 317.93671835 -403.109375 314.41015625 C-400.49695807 311.7604856 -398.08494254 308.97577197 -395.6640625 306.15234375 C-393.19193457 303.37050852 -390.53366328 300.79374049 -387.8828125 298.18359375 C-385.99566131 296.26642823 -384.231115 294.29174678 -382.48046875 292.25 C-379.20666222 288.43925937 -375.68432904 284.93671835 -372.109375 281.41015625 C-369.49695807 278.7604856 -367.08494254 275.97577197 -364.6640625 273.15234375 C-362.19193457 270.37050852 -359.53366328 267.79374049 -356.8828125 265.18359375 C-354.99566131 263.26642823 -353.231115 261.29174678 -351.48046875 259.25 C-348.20666222 255.43925937 -344.68432904 251.93671835 -341.109375 248.41015625 C-338.49695807 245.7604856 -336.08494254 242.97577197 -333.6640625 240.15234375 C-331.19193457 237.37050852 -328.53366328 234.79374049 -325.8828125 232.18359375 C-323.99566131 230.26642823 -322.231115 228.29174678 -320.48046875 226.25 C-317.91131604 223.25948284 -315.22479619 220.45633316 -312.41796875 217.6875 C-309.1416347 214.44958193 -306.06164175 211.14148086 -303.09375 207.62109375 C-301.2301111 205.5366287 -299.31648142 203.56903805 -297.3359375 201.59765625 C-296.69358154 200.94555176 -296.05122559 200.29344727 -295.3894043 199.62158203 C-294.09290834 198.30854873 -292.78080806 197.01071093 -291.45239258 195.72998047 C-289.71068049 193.94681577 -288.21623838 192.31642414 -286.91796875 190.1875 C-286.84390081 186.5594115 -286.84390081 186.5594115 -287.91796875 183.1875 C-288.76070204 173.37863708 -286.85657145 166.59673875 -280.73046875 158.875 C-276.54894469 154.4743185 -272.23998211 151.42944477 -265.99902344 151.08007812 C-264.5576766 151.05750521 -263.11625665 151.03927216 -261.67480469 151.02490234 C-252.89767448 150.99888489 -252.89767448 150.99888489 -245.79296875 146.125 C-244.46242384 144.51043493 -243.16860176 142.86472605 -241.91796875 141.1875 C-240.71960817 139.80379976 -239.51173227 138.4282635 -238.29296875 137.0625 C-237.73351562 136.41023437 -237.1740625 135.75796875 -236.59765625 135.0859375 C-234.39509655 132.59653281 -232.03444239 130.2929897 -229.6640625 127.96484375 C-227.85319232 126.12156426 -226.16475521 124.20927201 -224.48046875 122.25 C-222.06179096 119.44173653 -219.55897192 116.78779407 -216.91796875 114.1875 C-214.31814692 111.62759866 -211.85528477 109.0197046 -209.48046875 106.25 C-203.19711999 98.96702758 -196.27029354 92.37750874 -188.91796875 86.1875 C-187.77328125 85.20910156 -187.77328125 85.20910156 -186.60546875 84.2109375 C-146.19199361 50.32768853 -94.65578066 22.79581334 -41.34375 18.63671875 C-29.98071876 18.21938082 -29.98071876 18.21938082 -19.83984375 13.953125 C-17.81955603 11.38066428 -17.81955603 11.38066428 -16.33203125 8.63671875 C-13.72417497 4.11979641 -9.30827256 1.98426794 -4.48046875 0.375 C-2.98575324 0.26563057 -1.49160086 0.14581841 0 0 Z M-6.91796875 14.1875 C-11.50947671 18.54354602 -12.99103145 23.48295096 -13.23046875 29.6875 C-13.1183804 33.85578565 -12.28743848 36.67414833 -9.91796875 40.1875 C-5.102266 44.5333781 -1.9867902 45.6570737 4.40625 45.6015625 C9.97350495 44.74006027 13.57292823 41.03736822 17.01953125 36.8125 C19.11406004 31.63778182 19.71035832 27.27990538 17.95703125 22 C15.99985419 17.55266462 13.69195638 14.29443323 9.07421875 12.3359375 C3.20299684 10.63798831 -1.54144587 11.29411018 -6.91796875 14.1875 Z " fill="#23CFC4" transform="translate(895.91796875,178.8125)"/>
<path d="M0 0 C1.18820847 0.00323273 1.18820847 0.00323273 2.40042114 0.00653076 C14.60033714 0.05971623 26.45184313 0.50525641 38.375 3.3125 C39.20918457 3.50585938 40.04336914 3.69921875 40.90283203 3.8984375 C66.52071749 10.05699427 90.49667762 22.34368412 111.375 38.3125 C112.2928125 39.00601563 113.210625 39.69953125 114.15625 40.4140625 C120.58808308 45.46494318 126.3017572 51.11889244 132.0300293 56.93530273 C135.70309895 60.66301855 139.39963401 64.24519686 143.45703125 67.55859375 C145.375 69.3125 145.375 69.3125 147.69921875 72.09765625 C153.10611109 78.36124603 156.66221568 81.12257023 165.0625 81.75 C166.53360907 81.8425246 168.00496623 81.93120272 169.4765625 82.015625 C174.33390838 82.38552308 177.49438717 83.44654282 181.375 86.3125 C182.43460937 87.08980469 182.43460937 87.08980469 183.515625 87.8828125 C189.30776769 92.52902768 191.892978 97.01837433 193.375 104.3125 C194.06476213 114.96401907 193.48428438 124.14659647 186.83203125 132.80859375 C182.46672323 137.31434064 177.12194346 139.14793657 170.984375 139.515625 C159.62735567 139.65356451 152.78985973 138.58663302 144.359375 130.51953125 C140.22242916 125.91840054 138.26939682 121.94941669 138.52172852 115.64868164 C138.55769638 114.97835907 138.59366425 114.3080365 138.63072205 113.61740112 C138.83382621 106.43914735 137.6903262 101.71199061 132.88180542 96.26765442 C129.63757136 92.94427157 126.25440762 89.80390252 122.8125 86.6875 C121.43583637 85.38271168 120.06275593 84.07413195 118.69335938 82.76171875 C112.88594014 77.23173504 106.950348 71.84350985 100.87280273 66.61132812 C98.92445538 64.92180768 97.06418519 63.14334048 95.1875 61.375 C89.73761318 56.54716159 83.69235867 52.88864415 77.375 49.3125 C76.71935059 48.93947754 76.06370117 48.56645508 75.38818359 48.18212891 C60.022709 39.52700825 44.66279655 33.76660521 27.375 30.3125 C26.30765625 30.085625 25.2403125 29.85875 24.140625 29.625 C-13.1859211 22.93964846 -52.91058566 32.77829129 -83.9453125 54.20703125 C-107.33873638 71.06843476 -125.07641647 92.03036809 -134.76245117 119.44970703 C-136.89808636 125.29079098 -139.8022422 131.4011211 -145.625 134.3125 C-150.44810068 134.71636672 -155.03460051 134.87576649 -159.625 133.25 C-163.51802022 129.47863666 -164.78612751 125.38541079 -164.91796875 120.109375 C-164.84080134 115.0328989 -163.31333274 111.20837938 -161.125 106.6875 C-160.76188721 105.91043701 -160.39877441 105.13337402 -160.0246582 104.33276367 C-158.91339642 101.98132509 -157.7737987 99.64579312 -156.625 97.3125 C-156.29935059 96.63815918 -155.97370117 95.96381836 -155.63818359 95.26904297 C-150.7004124 85.12388749 -144.55085477 76.197105 -137.625 67.3125 C-136.8721875 66.33410156 -136.119375 65.35570312 -135.34375 64.34765625 C-107.39854978 29.06177843 -65.80253615 6.75634849 -21.48046875 0.70288086 C-14.32760127 -0.02137415 -7.18365366 -0.03524309 0 0 Z " fill="#1CC0DD" transform="translate(302.625,298.6875)"/>
<path d="M0 0 C6.83323059 3.96660702 11.89768815 8.49709232 14.171875 16.21875 C14.74221138 19.64076827 14.70838843 22.96986934 14.75 26.4375 C15.02091003 32.08710292 15.66941763 34.89781076 19.75 38.875 C20.86761719 39.78572266 20.86761719 39.78572266 22.0078125 40.71484375 C24.91944419 43.18755783 27.25945782 45.90206976 29.7421875 48.79467773 C32.86378988 52.34736239 36.20992245 55.6668202 39.5625 59 C40.22701172 59.66837891 40.89152344 60.33675781 41.57617188 61.02539062 C45.49132819 64.93295207 49.50154055 68.67756893 53.69775391 72.28198242 C54.93222045 73.34239762 56.15576031 74.41575034 57.36474609 75.50512695 C87.29557478 102.19610953 127.7831919 110.38609193 166.625 108.9375 C202.47120411 106.69590449 237.95537221 87.02081735 262.3125 61.1875 C273.40466961 48.28099782 282.0448499 33.72905435 287.95336914 17.78393555 C292.35680053 5.95895767 292.35680053 5.95895767 298.625 2.9375 C303.08852919 1.32093007 306.58120705 1.60243154 310.9375 3.4375 C313.903392 5.14478164 314.72261622 6.09307585 316.625 9.125 C318.73462585 17.16794855 317.70472041 23.16715109 314.125 30.5625 C313.58033081 31.72809448 313.58033081 31.72809448 313.0246582 32.91723633 C311.91339642 35.26867491 310.7737987 37.60420688 309.625 39.9375 C309.29935059 40.61184082 308.97370117 41.28618164 308.63818359 41.98095703 C289.21431683 81.88927611 251.82330229 113.28521269 210.375 128.37109375 C191.74381765 134.75501358 172.61651331 137.34395622 153 137.25 C152.20885803 137.24817719 151.41771606 137.24635437 150.6026001 137.24447632 C138.39756465 137.19719624 126.56414052 136.67678332 114.625 133.9375 C113.8932959 133.77652832 113.1615918 133.61555664 112.40771484 133.44970703 C86.96401163 127.67536758 62.08856436 115.02760137 41.625 98.9375 C41.09390625 98.52064941 40.5628125 98.10379883 40.015625 97.67431641 C32.47269248 91.67612886 25.63002112 85.08020962 18.87280273 78.2175293 C15.1899892 74.47890826 11.47761342 70.88337297 7.41015625 67.55859375 C5.625 65.9375 5.625 65.9375 3.74609375 63.59765625 C-0.31718869 58.71709119 -3.30683758 56.53848723 -9.56494141 55.86035156 C-11.06431487 55.7450402 -12.56400031 55.63371663 -14.06396484 55.52636719 C-22.871378 54.87627305 -28.69808858 52.01111163 -34.875 45.625 C-40.71849974 38.47378156 -41.17552544 30.96277872 -40.375 21.9375 C-38.94859416 14.01446394 -34.66365484 6.92958477 -28.0234375 2.296875 C-19.24844459 -2.67657375 -9.47025777 -4.43691032 0 0 Z " fill="#25D2BF" transform="translate(746.375,520.0625)"/>
<path d="M0 0 C3.75789022 2.97416444 6.1088541 7.0738409 8.65039062 11.07958984 C9.25713623 12.01601318 9.86388184 12.95243652 10.48901367 13.91723633 C29.03524063 42.85699124 41.55805485 73.60722443 47.83789062 107.45458984 C48.0725 108.70111328 48.30710937 109.94763672 48.54882812 111.23193359 C58.06503568 169.22563327 41.32029781 230.91140195 7.48144531 278.35644531 C4.70405243 282.14087646 1.79751198 285.8104958 -1.16210938 289.45458984 C-1.58717773 289.98117187 -2.01224609 290.50775391 -2.45019531 291.05029297 C-9.54539013 299.8378706 -9.54539013 299.8378706 -11.16210938 301.45458984 C-11.29595105 303.78640921 -11.39355901 306.12033922 -11.47460938 308.45458984 C-12.04875543 318.9843291 -15.34338808 326.28338169 -23.16210938 333.45458984 C-28.96079377 338.27551012 -36.03557022 338.15119904 -43.24414062 337.83349609 C-51.49544889 337.03551314 -57.18645402 334.32616445 -62.75976562 328.18896484 C-69.0785161 320.37413139 -68.78226513 312.11868369 -68.16210938 302.45458984 C-67.42874026 299.79825868 -66.4900538 297.88915463 -65.16210938 295.45458984 C-65.16210938 294.46458984 -65.16210938 293.47458984 -65.16210938 292.45458984 C-63.01052814 287.77173658 -59.49351776 284.18979402 -55.16210938 281.45458984 C-50.18857627 279.66815373 -46.03567245 279.36656363 -40.78710938 279.45458984 C-35.33571995 279.10185288 -32.31087805 278.61892002 -28.53710938 274.57958984 C-27.01018941 272.56187417 -25.5803873 270.54477407 -24.16210938 268.45458984 C-23.14840718 267.04565235 -22.13263084 265.63820577 -21.11523438 264.23193359 C-5.22496631 241.92707231 8.13374785 218.13487656 14.83789062 191.45458984 C15.03753418 190.66536133 15.23717773 189.87613281 15.44287109 189.06298828 C26.29515268 144.68310934 21.2445081 95.30908363 0.83789062 54.45458984 C0.44585449 53.65037598 0.05381836 52.84616211 -0.35009766 52.01757812 C-5.57754118 41.33336085 -11.5449221 31.57245112 -18.59570312 21.99365234 C-24.87016575 13.42227814 -24.87016575 13.42227814 -24.64648438 7.51708984 C-23.51549157 2.70124952 -19.83338597 -0.48986704 -15.78710938 -3.04541016 C-9.89546981 -4.16762722 -5.10688043 -3.04805003 0 0 Z " fill="#2CE1A6" transform="translate(1079.162109375,337.54541015625)"/>
<path d="M0 0 C5.39887564 4.51304976 7.74049787 8.99219573 8.46435547 16.01806641 C8.62576455 18.36880619 8.70740318 20.7066795 8.75 23.0625 C8.76877197 23.81442627 8.78754395 24.56635254 8.80688477 25.34106445 C8.72660681 32.32218807 6.42630132 37.48218569 1.8125 42.6875 C0.966875 43.43 0.12125 44.1725 -0.75 44.9375 C-1.471875 45.63875 -2.19375 46.34 -2.9375 47.0625 C-8.74986725 50.9374115 -14.41771932 52.17242753 -21.3125 51.4375 C-24.84219877 51.36334666 -26.25042787 51.53320709 -29.0234375 53.77734375 C-30.99544914 56.14446963 -32.79574769 58.56268478 -34.51513672 61.11865234 C-35.85287063 63.08901961 -37.24989977 65.00671195 -38.66015625 66.92578125 C-45.23948522 75.94709576 -51.27147132 85.21070047 -56.75 94.9375 C-57.37285889 96.03167236 -57.37285889 96.03167236 -58.00830078 97.14794922 C-84.06098028 143.29201948 -85.7413338 198.5995726 -71.92089844 248.8918457 C-65.53741671 271.01117344 -54.88312803 291.01752576 -41.24609375 309.50390625 C-35.06218284 317.92766792 -35.06218284 317.92766792 -35.25390625 323.87109375 C-36.17863106 327.72290026 -38.85768048 330.35239576 -41.75 332.9375 C-44.26447934 334.19473967 -46.12793937 334.17637014 -48.9375 334.25 C-49.85917969 334.28738281 -50.78085938 334.32476563 -51.73046875 334.36328125 C-56.81785918 333.64591313 -60.2019772 331.77077151 -63.47241211 327.89770508 C-65.27925573 325.37670218 -66.96534728 322.80770994 -68.625 320.1875 C-69.53789795 318.77839355 -69.53789795 318.77839355 -70.46923828 317.34082031 C-104.82359988 263.81171967 -119.15786672 200.75331336 -105.5 137.984375 C-97.40347 102.96645781 -82.13706985 71.04804922 -59.75 42.9375 C-59.29898926 42.3707959 -58.84797852 41.8040918 -58.38330078 41.22021484 C-51.78319733 32.97069733 -51.78319733 32.97069733 -48.75 29.9375 C-48.52126184 27.56904666 -48.39051233 25.19069394 -48.3125 22.8125 C-47.68670727 11.19279159 -44.53628071 4.88423495 -35.75 -3.0625 C-25.32676657 -10.43179243 -9.68746716 -6.6464176 0 0 Z " fill="#18B6EB" transform="translate(182.75,287.0625)"/>
<path d="M0 0 C3.16630521 1.99614893 5.39116117 4.0102203 7.875 6.8125 C8.41640625 7.40933594 8.9578125 8.00617188 9.515625 8.62109375 C13.875 13.5202979 13.875 13.5202979 13.875 15.8125 C14.555625 15.78929687 15.23625 15.76609375 15.9375 15.7421875 C56.73176739 14.98271976 103.7617025 31.18785441 137.875 52.8125 C138.46893555 53.18697266 139.06287109 53.56144531 139.67480469 53.94726562 C152.04614216 61.80065492 163.62998049 70.60073653 174.3984375 80.546875 C175.76575258 81.79773107 177.14197338 83.03977683 178.55305481 84.24104309 C183.97589966 88.8676778 188.89055778 93.86652435 193.80078125 99.02734375 C195.50040185 100.78340379 197.20162247 102.53791639 198.90429688 104.29101562 C201.5584275 107.02538798 204.20299522 109.76637688 206.82202148 112.53442383 C209.37274214 115.22477291 211.95749083 117.87808766 214.55078125 120.52734375 C215.32198807 121.35846176 216.09319489 122.18957977 216.88777161 123.04588318 C221.16363706 127.3772976 221.16363706 127.3772976 226.78523254 129.30740356 C229.52488236 129.30692392 232.15341943 129.1006314 234.875 128.8125 C243.91157753 129.82476539 250.64533594 133.15968895 256.875 139.8125 C262.37648952 146.96728689 261.58011532 156.26186103 260.875 164.8125 C259.73982344 171.84398202 255.2315708 177.30589746 249.875 181.8125 C242.06197562 186.22136247 233.70367009 187.16003112 225.01953125 185.15234375 C217.01636747 182.60237019 210.47218443 178.42562371 206.4375 170.875 C204.73056768 166.56252364 205.00817655 163.11641292 205.23828125 158.52734375 C205.08551797 149.89179168 201.02593587 145.36906878 195.09648132 139.47654724 C192.92129916 137.39515931 190.71199724 135.3546414 188.5 133.3125 C187.05270919 131.91484727 185.60866868 130.51382064 184.16796875 129.109375 C177.50114134 122.6766718 170.77382014 116.67537593 163.14648438 111.40185547 C159.99294283 109.19532543 157.17107212 106.69371054 154.3125 104.125 C142.12954049 93.48503269 129.01902665 84.27973646 114.69091797 76.76953125 C113.04307636 75.90108017 111.41294887 74.9992225 109.78515625 74.09375 C86.31719001 61.54593451 59.77527327 53.55720985 33.6875 48.9375 C32.46933594 48.72174316 31.25117188 48.50598633 29.99609375 48.28369141 C19.98128876 46.50655865 19.98128876 46.50655865 9.875 46.8125 C6.69607501 49.07270797 6.69607501 49.07270797 3.875 51.8125 C-3.60742448 55.42218525 -11.89033219 57.37344773 -20 54.8125 C-27.95502453 51.43906751 -34.87943515 45.71664065 -38.34765625 37.71875 C-40.52645231 29.5728994 -40.51093997 20.33889226 -36.4453125 12.8046875 C-28.138889 0.2713266 -15.09188608 -5.758746 0 0 Z M-21.125 18.8125 C-24.59057983 23.48393948 -25.879635 27.99102999 -25.125 33.8125 C-23.67329301 37.40720303 -22.19497933 40.3820997 -19.125 42.8125 C-16.35447819 43.73600727 -14.55811242 43.97579585 -11.6875 44 C-10.54474609 44.02126953 -10.54474609 44.02126953 -9.37890625 44.04296875 C-6.80840239 43.78012693 -5.2902373 43.21648545 -3.125 41.8125 C0.79236948 36.98833203 1.56328385 31.42643413 1.328125 25.37109375 C0.5865448 21.18372281 -0.91949208 19.59060686 -4.125 16.8125 C-10.29861056 13.41701419 -15.74451351 14.26076143 -21.125 18.8125 Z " fill="#21C9CD" transform="translate(313.125,174.1875)"/>
<path d="M0 0 C3.5154435 3.78243921 4.9547601 7.41397507 5.73046875 12.47265625 C5.88902344 13.44847656 6.04757812 14.42429687 6.2109375 15.4296875 C6.54296875 18.66015625 6.54296875 18.66015625 6.12573242 22.37084961 C6.1238733 27.09920921 8.19298908 29.23840272 11.42044067 32.49530029 C12.12345306 33.16329651 12.82646545 33.83129272 13.55078125 34.51953125 C14.26902069 35.23119446 14.98726013 35.94285767 15.7272644 36.67608643 C18.02272938 38.94011945 20.34502146 41.17436764 22.66796875 43.41015625 C24.20874954 44.92794515 25.74783209 46.44746008 27.28515625 47.96875 C28.76800237 49.4247358 30.25233024 50.87921437 31.73828125 52.33203125 C32.42914825 53.00812439 33.12001526 53.68421753 33.83181763 54.38079834 C37.53920629 57.94403999 41.17623707 60.9457448 45.54296875 63.66015625 C47.08128549 64.82491884 48.60259061 66.01251263 50.10546875 67.22265625 C50.97300781 67.92003906 51.84054687 68.61742187 52.734375 69.3359375 C55.18413016 71.36320359 57.57813172 73.44204732 59.96777344 75.53930664 C68.27438803 82.76832725 77.23590651 88.79752216 86.54296875 94.66015625 C87.45876709 95.25111084 87.45876709 95.25111084 88.39306641 95.85400391 C116.30058852 113.69058485 167.97364435 135.43800899 201.54296875 129.66015625 C204.48150949 127.47213044 204.48150949 127.47213044 206.54296875 124.66015625 C212.90000477 120.21023104 219.98093603 119.92265031 227.54296875 120.66015625 C236.10892339 123.03205825 243.11129372 128.65619031 247.53515625 136.33203125 C250.92763469 144.16891943 251.47066826 152.63135586 248.54296875 160.66015625 C244.86075825 168.31207717 240.74403833 173.86926102 232.61328125 177.0546875 C224.56142962 179.4094743 216.13445205 179.4449906 208.54296875 175.66015625 C203.8791277 171.84836309 199.88503761 167.67325954 196.54296875 162.66015625 C193.65673185 162.02356372 193.65673185 162.02356372 190.10546875 161.78515625 C135.61550675 156.10035554 83.34610728 136.42869677 41.54296875 100.78515625 C40.78040771 100.13595215 40.78040771 100.13595215 40.00244141 99.47363281 C38.16561325 97.88756425 36.35284629 96.27694944 34.54296875 94.66015625 C33.64570068 93.86351562 32.74843262 93.066875 31.82397461 92.24609375 C25.29144023 86.37113195 19.14335826 80.21728818 13.109375 73.83203125 C10.86743252 71.48656473 8.622935 69.1435703 6.37768555 66.80126953 C4.85295536 65.196756 3.34000801 63.58096895 1.83862305 61.95458984 C-6.40923857 52.08377953 -6.40923857 52.08377953 -17.50317383 46.65649414 C-20.95498038 46.67783904 -24.062674 47.09528289 -27.45703125 47.66015625 C-34.60057943 46.5396382 -40.41738601 42.76039843 -45.45703125 37.66015625 C-50.96397833 29.3921503 -51.76358899 19.97208491 -50.03125 10.27734375 C-47.97002504 4.0304411 -43.79323596 -2.22788112 -38.2109375 -5.76171875 C-24.46602617 -12.15901306 -11.24710652 -9.59076304 0 0 Z M211.29296875 138.97265625 C207.71668771 144.46480213 207.17142902 148.86476633 208.0078125 155.2578125 C209.08490588 160.09293972 211.2632641 162.78763035 215.29296875 165.53515625 C220.18610705 167.22893489 224.3117757 167.59414404 229.23046875 165.53515625 C233.7139268 161.89992 237.04799309 158.14186006 237.88671875 152.2421875 C238.19285462 146.81592928 237.97243886 143.37241545 234.41796875 139.09765625 C230.6094903 135.34292649 227.32451627 134.00784969 222.04296875 133.34765625 C217.50936187 133.91435711 214.45444 135.72336635 211.29296875 138.97265625 Z " fill="#21CACB" transform="translate(676.45703125,603.33984375)"/>
<path d="M0 0 C0.50934082 0.41749512 1.01868164 0.83499023 1.54345703 1.26513672 C5.41479027 4.45052706 9.21868841 7.70857009 13 11 C13.92425781 11.79921875 14.84851563 12.5984375 15.80078125 13.421875 C20.96975062 17.97119554 25.67063373 22.64598627 30 28 C30.75925781 28.93328125 31.51851562 29.8665625 32.30078125 30.828125 C50.34380128 53.40946429 68 85.22946749 68 115 C68.5775 115.26425781 69.155 115.52851563 69.75 115.80078125 C76.28659977 119.28469814 80.8727038 124.37013206 84 131 C86.32384244 138.6421664 85.5807295 146.89882265 82 154 C78.10831372 160.31815734 74.03128047 165.12066323 66.8359375 167.4453125 C57.57467138 169.25674472 48.17894623 169.0604572 40 164 C33.58279274 158.94302128 30.17201584 154.00770405 28.3125 146.0625 C27.23818155 135.53417922 28.87567762 128.11047052 35.5 119.7265625 C37 118 37 118 38.77734375 116.78515625 C40.38350704 114.85184218 40.38350704 114.85184218 39.62890625 111.33203125 C39.29572243 109.820436 38.93854295 108.31400703 38.5625 106.8125 C38.36857666 106.00659424 38.17465332 105.20068848 37.97485352 104.37036133 C29.22219702 69.43858812 8.29466033 38.61594726 -22 19 C-23.04542969 18.30519531 -24.09085938 17.61039062 -25.16796875 16.89453125 C-39.43146474 7.73400029 -54.63890576 1.322657 -71 -3 C-72.19737793 -3.31759277 -72.19737793 -3.31759277 -73.41894531 -3.64160156 C-101.65295121 -10.79361189 -135.41980413 -9.45686156 -162 3.3125 C-166.30852678 5.31932331 -169.25075318 5.61280604 -174 5 C-177.64954969 3.63233308 -180.35639598 1.77232482 -182.875 -1.25 C-184.66757539 -5.63185095 -186.00116205 -9.52626071 -184.17871094 -14.02929688 C-180.98536366 -19.3820049 -178.10500311 -21.67840462 -172.25 -23.6875 C-171.4770459 -23.96875732 -170.7040918 -24.25001465 -169.90771484 -24.53979492 C-116.0486561 -43.08515517 -44.92801704 -37.03619279 0 0 Z M45 131 C42.41125466 135.85389751 42.55227669 140.77885594 44 146 C45.80077131 149.27476173 48.08092565 151.45352336 51.3125 153.375 C56.7112155 154.63051523 60.98999947 154.84371904 65.875 152.1875 C69.0340074 149.97619482 70.66819462 148.55466874 71.484375 144.73046875 C72.23572051 137.65064186 72.23572051 137.65064186 70 131 C66.13403023 126.93520893 62.36047636 124.88618133 56.75 124.5625 C51.31906687 124.62451718 48.35510818 126.86551825 45 131 Z " fill="#2CE1A7" transform="translate(1002,339)"/>
<path d="M0 0 C7.27739963 5.73483971 10.7312903 11.58028662 11.875 20.8125 C12.42432579 30.38987569 9.81850676 36.76853621 3.62109375 43.9921875 C1.36771234 46.75642188 1.36771234 46.75642188 0 50 C0.35748104 52.70493989 0.82224828 55.12585405 1.5 57.75 C1.68868652 58.50297363 1.87737305 59.25594727 2.07177734 60.03173828 C12.27913003 99.24600967 36.9454354 130.04197915 71.46875 150.7109375 C83.84815675 157.91977527 96.45041248 162.80948668 110.1875 166.75 C111.21907227 167.04837769 111.21907227 167.04837769 112.27148438 167.3527832 C141.63161774 175.370411 175.85764712 172.69038143 203.68359375 160.375 C207.97134522 158.59727501 211.47245665 157.98167158 215.890625 159.76171875 C219.39262035 161.62307342 222.21641833 163.43283667 224 167 C225.36782482 172.95980813 225.31962422 176.60561064 222 182 C216.98998515 185.28066962 211.95456633 187.25461286 206.25 189 C205.42363037 189.25491211 204.59726074 189.50982422 203.74584961 189.77246094 C158.9021693 203.24382697 109.20357964 201.10178982 67 180 C66.360625 179.68160156 65.72125 179.36320313 65.0625 179.03515625 C50.48287718 171.71854407 38.30315383 162.62762704 26 152 C25.22269531 151.34773437 24.44539063 150.69546875 23.64453125 150.0234375 C18.94732461 146.04398584 14.91980876 141.74184371 11 137 C10.38511719 136.27296875 9.77023438 135.5459375 9.13671875 134.796875 C-0.71671571 122.87007256 -8.58685911 110.05390186 -15 96 C-15.31066406 95.32743164 -15.62132812 94.65486328 -15.94140625 93.96191406 C-21.42876347 81.92531564 -25.2876211 69.35923878 -27.44775391 56.29125977 C-27.59776855 55.40365967 -27.7477832 54.51605957 -27.90234375 53.6015625 C-28.02472412 52.7967041 -28.14710449 51.9918457 -28.27319336 51.16259766 C-29.43742507 47.69845105 -31.92663933 46.34394189 -34.8984375 44.42578125 C-40.04387557 40.93491713 -43.81847793 36.14391478 -45 30 C-46.00964848 20.17170306 -44.03235822 11.42295731 -37.875 3.5625 C-28.2405922 -6.35706998 -11.55209673 -7.14748446 0 0 Z M-28 12 C-31.68811015 16.75572098 -32.70407478 20.61751364 -32.45703125 26.62890625 C-31.57215922 31.21965258 -28.91439823 33.65992124 -25.125 36.3125 C-20.39550752 37.84262992 -17.11398317 38.35874034 -12.3125 36.8125 C-8.02352464 34.46570216 -5.56121639 32.68364917 -4 28 C-3.13246582 20.2923982 -3.13246582 20.2923982 -6.125 13.4375 C-10.20297328 9.98008787 -13.23318771 9.1577511 -18.5 8.6875 C-22.51231677 9.04574257 -24.67993576 9.71284463 -28 12 Z " fill="#16B2F2" transform="translate(160,453)"/>
<path d="M0 0 C6.42515829 3.76229834 12.79317638 9.07854515 15.94140625 15.96875 C16.55774876 18.77310841 16.4376955 21.36026057 16.33984375 24.21630859 C16.12413521 30.50370958 16.12413521 30.50370958 18.73242188 36.01611328 C22.21869973 39.05854626 26.22331789 41.21487426 30.31835938 43.32910156 C32.4833449 44.45446533 34.5864874 45.65310634 36.69140625 46.88671875 C40.01949575 48.8283668 43.37886422 50.69885587 46.76953125 52.52880859 C48.20249296 53.30268933 49.62765872 54.09098365 51.05078125 54.8828125 C94.62422574 78.10685323 151.68607096 81.66308709 198.48828125 67.45703125 C206.23998588 65.03724674 213.83561968 62.47748078 220.98828125 58.58203125 C225.52605359 56.19738558 229.42170818 55.40676274 234.48828125 56.45703125 C238.81313625 58.66025927 242.09000876 61.21393377 244.48828125 65.45703125 C245.27471846 70.24787833 245.11500484 73.96029074 243.23046875 78.4609375 C239.74622426 83.27372349 233.48665685 84.60493473 228.11328125 86.45703125 C226.90027344 86.88709473 225.68726563 87.3171582 224.4375 87.76025391 C213.58201718 91.54628864 202.72288565 94.99294311 191.48828125 97.45703125 C190.06249756 97.77027344 190.06249756 97.77027344 188.60791016 98.08984375 C160.44014973 103.93327871 127.67051054 104.48227158 99.48828125 98.45703125 C98.5034375 98.25303711 97.51859375 98.04904297 96.50390625 97.83886719 C82.09325285 94.79080103 68.22154303 90.76306421 54.48828125 85.45703125 C53.65941406 85.14991211 52.83054687 84.84279297 51.9765625 84.52636719 C35.3893943 78.33475578 20.49547619 69.20866119 6.63842773 58.19116211 C0.84622502 53.64742169 -2.80579742 51.30531551 -10.19921875 52.14453125 C-19.36411035 52.61885459 -24.08929826 51.62089923 -31.26171875 45.89453125 C-37.43509717 40.04101699 -39.64250941 33.87536339 -40.07421875 25.45703125 C-39.76478057 17.14488142 -35.90676103 10.03951299 -30.29296875 3.99609375 C-21.33785942 -3.74143492 -10.67634341 -4.81882805 0 0 Z M-20.51171875 13.45703125 C-23.2944643 17.8598684 -23.94359339 21.34982252 -23.94921875 26.51953125 C-23.96855469 27.70675781 -23.98789062 28.89398437 -24.0078125 30.1171875 C-23.42288752 34.05506825 -22.32302977 35.68639019 -19.51171875 38.45703125 C-14.84919017 40.01120744 -11.02418548 40.00151927 -6.38671875 38.33203125 C-1.35766795 35.05221551 1.38767393 31.74853427 2.98828125 26.01953125 C3.79555501 21.35615369 3.06479872 18.51699817 0.48828125 14.45703125 C-2.52817894 11.4633082 -5.25612791 9.69746354 -9.44921875 8.89453125 C-13.53656258 9.64526787 -17.23479227 10.84387452 -20.51171875 13.45703125 Z " fill="#22CDC8" transform="translate(755.51171875,609.54296875)"/>
<path d="M0 0 C0.98484375 0.20399414 1.9696875 0.40798828 2.984375 0.61816406 C17.38220246 3.66351735 31.2874833 7.66380703 45 13 C45.83321777 13.32258789 46.66643555 13.64517578 47.52490234 13.97753906 C50.04583272 14.96543861 52.55583948 15.97647606 55.0625 17 C55.79968262 17.29567871 56.53686523 17.59135742 57.29638672 17.89599609 C65.91594398 21.52599586 73.44316347 26.79245204 80.91015625 32.3671875 C95.96815135 43.72524746 95.96815135 43.72524746 114.16015625 46.0859375 C121.99301656 45.91063442 127.45176783 49.42946426 133.01171875 54.7109375 C138.72838358 61.29240232 139.61396305 68.50922224 139.32421875 77.01171875 C138.655171 83.1782432 136.14270844 87.39222066 132 92 C129.16015625 93.765625 129.16015625 93.765625 126.0625 95.25 C125.04285156 95.75015625 124.02320313 96.2503125 122.97265625 96.765625 C115.19250562 99.99627888 107.06166497 99.98528878 99.19921875 97.03515625 C90.95586984 93.15507195 86.25887832 87.44963714 82.81640625 79.14453125 C81.89692235 75.60297843 82.27307037 73.27931194 82.8125 69.6875 C83.00409302 66.23625795 83.00409302 66.23625795 82 63 C78.19075841 59.48678452 73.9335051 57.41385072 69.29736328 55.1640625 C66.10047397 53.54421465 63.07432611 51.67788346 60.01416016 49.81591797 C15.55392896 23.00166449 -41.37381319 16.66446243 -91.38964844 28.87939453 C-101.95475275 31.63101906 -112.55875022 35.11946502 -122.25390625 40.18359375 C-126.61926148 42.41336403 -130.15741097 42.88945513 -135 42 C-139.324855 39.79677198 -142.60172751 37.24309748 -145 33 C-145.78643721 28.20915292 -145.62672359 24.49674051 -143.7421875 19.99609375 C-140.25794301 15.18330776 -133.9983756 13.85209652 -128.625 12 C-127.41199219 11.56993652 -126.19898438 11.13987305 -124.94921875 10.69677734 C-114.09373593 6.91074261 -103.2346044 3.46408814 -92 1 C-91.04947754 0.79117188 -90.09895508 0.58234375 -89.11962891 0.3671875 C-60.95186848 -5.47624746 -28.18222929 -6.02524033 0 0 Z M98 64 C96.14790955 68.89481047 95.19897299 73.90330403 97 78.9375 C99.38319578 82.58676854 101.03465757 84.16419332 105 86 C109.74486163 86.82482362 113.0510257 86.47448715 117.375 84.3125 C120.91923195 81.19020043 122.69388372 79.22444494 123.3515625 74.4453125 C123.58639302 69.88465661 123.71068854 66.14937554 120.8125 62.4375 C116.48375132 58.68591781 112.90309237 57.36404592 107.0625 57.57421875 C102.95026554 58.42314594 100.37122716 60.5995039 98 64 Z " fill="#1EC5D4" transform="translate(347,248)"/>
<path d="M0 0 C0 1.98 0 3.96 0 6 C-0.93960571 6.08918701 -0.93960571 6.08918701 -1.89819336 6.18017578 C-25.00681149 8.45645327 -47.05426409 13.44466287 -69 21 C-70.00087646 21.3393457 -70.00087646 21.3393457 -71.02197266 21.68554688 C-93.95718923 29.54514431 -115.11489057 41.29136026 -135 55.0625 C-135.94987793 55.7129126 -135.94987793 55.7129126 -136.91894531 56.37646484 C-149.60752622 65.39720171 -160.37690019 77.21831079 -171.32885742 88.19848633 C-173.82161995 90.69663968 -176.31972475 93.18936198 -178.81835938 95.68164062 C-180.42740428 97.29134591 -182.03613918 98.90136115 -183.64453125 100.51171875 C-184.74786552 101.61201668 -184.74786552 101.61201668 -185.87348938 102.73454285 C-189.90570002 106.78487188 -193.76383919 110.9300405 -197.49629211 115.258255 C-199.22707791 117.26302437 -201.0111115 119.21015201 -202.82421875 121.140625 C-203.46037109 121.81867188 -204.09652344 122.49671875 -204.75195312 123.1953125 C-205.39068359 123.87335938 -206.02941406 124.55140625 -206.6875 125.25 C-207.33783203 125.94351563 -207.98816406 126.63703125 -208.65820312 127.3515625 C-209.29048828 128.02445313 -209.92277344 128.69734375 -210.57421875 129.390625 C-211.46548462 130.34835815 -211.46548462 130.34835815 -212.37475586 131.32543945 C-214 133 -214 133 -216.484375 135.05859375 C-218.32048933 137.01100354 -218.32048933 137.01100354 -218.06640625 140.20703125 C-217.90011719 141.39683594 -217.73382812 142.58664062 -217.5625 143.8125 C-216.79124955 151.48524937 -217.76534644 155.09041443 -222.25 161.3125 C-226.27236271 165.24344537 -229.56663279 166.01571943 -235.0234375 165.98046875 C-241.65048479 165.94931605 -241.65048479 165.94931605 -247.41796875 168.828125 C-249.74914656 171.46078483 -251.86150044 174.20877123 -254 177 C-255.99697709 179.25059386 -258.06055476 181.43636071 -260.125 183.625 C-263.27098337 186.99694383 -266.36382538 190.40368094 -269.38671875 193.88671875 C-273.04806813 198.08945057 -276.8511821 202.14476666 -280.6875 206.1875 C-285.68131292 211.46824703 -290.64964979 216.76883749 -295.5625 222.125 C-299.09757 225.97730492 -302.69660388 229.73749076 -306.4296875 233.3984375 C-308.17913223 235.18269706 -309.80715582 237.04396124 -311.4375 238.9375 C-314.40605556 242.38421216 -317.54079104 245.59110859 -320.8125 248.75 C-322.71150203 250.70325923 -324.49991854 252.69783601 -326.28515625 254.75390625 C-329.90058119 258.91534591 -333.64597849 262.93671237 -337.4375 266.9375 C-338.84767271 268.43097405 -340.25782846 269.9244641 -341.66796875 271.41796875 C-342.38388184 272.17513184 -343.09979492 272.93229492 -343.83740234 273.71240234 C-347.3121262 277.38796822 -350.78185285 281.06822904 -354.25 284.75 C-354.91451172 285.45503662 -355.57902344 286.16007324 -356.26367188 286.88647461 C-360.84792049 291.75695536 -365.38370628 296.66965163 -369.90405273 301.59936523 C-373.5010365 305.5039001 -377.23131409 309.25100857 -381.0078125 312.98046875 C-383.41103933 315.41668105 -385.62980862 317.97609741 -387.859375 320.5703125 C-394.99836734 328.67332935 -402.43605352 336.54443567 -410.14086914 344.11010742 C-411.92255656 345.92127516 -413.58970889 347.78520769 -415.24609375 349.7109375 C-418.94279561 353.96295263 -422.76283601 358.08591324 -426.625 362.1875 C-427.26695312 362.87263672 -427.90890625 363.55777344 -428.5703125 364.26367188 C-429.199375 364.93333984 -429.8284375 365.60300781 -430.4765625 366.29296875 C-431.07581543 366.93645264 -431.67506836 367.57993652 -432.29248047 368.24291992 C-434 370 -434 370 -436.984375 372.5625 C-439.32127719 374.89397662 -439.32127719 374.89397662 -439.1640625 378.26953125 C-438.98617187 379.43871094 -438.80828125 380.60789062 -438.625 381.8125 C-437.86351226 388.9645123 -438.13988998 393.20412839 -442.48046875 398.96484375 C-445.78071351 402.65779498 -448.89482041 405.0536024 -453.828125 405.9140625 C-461.50213631 406.21771043 -467.28057238 404.00449917 -473 399 C-476.09338349 393.86201715 -476.27914746 388.27305788 -475.5625 382.4375 C-473.37994154 377.63587139 -470.07640145 374.30955366 -466 371 C-462.96114499 369.98704833 -460.86567275 369.86620837 -457.6875 369.875 C-456.76324219 369.87242187 -455.83898437 369.86984375 -454.88671875 369.8671875 C-452 370 -452 370 -448.953125 370.78515625 C-445.88471346 371.32476972 -445.88471346 371.32476972 -443.47265625 369.19140625 C-442.67730469 368.32386719 -441.88195312 367.45632813 -441.0625 366.5625 C-440.19625 365.634375 -439.33 364.70625 -438.4375 363.75 C-435.90638443 360.89438244 -433.38915912 358.02986705 -430.91015625 355.12890625 C-427.71283752 351.56543241 -424.26779636 348.24973056 -420.84375 344.90625 C-418.03718431 342.1031627 -415.4611634 339.12074328 -412.86523438 336.12353516 C-409.66451773 332.47957791 -406.33045975 328.96255558 -403 325.4375 C-402.32710938 324.72142578 -401.65421875 324.00535156 -400.9609375 323.26757812 C-397.75909148 319.87102525 -394.53130302 316.51154818 -391.21875 313.22265625 C-388.87317541 310.89337037 -386.63473985 308.52683492 -384.5 306 C-382.2544206 303.39352391 -379.95448488 300.91065479 -377.5 298.5 C-375.12775898 296.16974555 -372.90886483 293.77895594 -370.75 291.25 C-367.81720415 287.84161563 -364.69927872 284.65600136 -361.5 281.5 C-357.73782889 277.78858331 -354.17190164 273.9814158 -350.7421875 269.9609375 C-348.03199516 266.91045196 -345.09926167 264.09113608 -342.1953125 261.2265625 C-339.55993257 258.55366826 -337.12233511 255.74631697 -334.6796875 252.8984375 C-333.01795424 251.02029247 -331.28874475 249.25694484 -329.5 247.5 C-327.12775898 245.16974555 -324.90886483 242.77895594 -322.75 240.25 C-319.0084374 235.90169752 -314.94452214 231.91053339 -310.84375 227.90625 C-308.02310424 225.08960586 -305.43453052 222.09143516 -302.82568359 219.07958984 C-299.82353211 215.65991529 -296.69227602 212.36503997 -293.5625 209.0625 C-292.15363485 207.57032287 -290.74478102 206.07813505 -289.3359375 204.5859375 C-288.62018555 203.82893555 -287.90443359 203.07193359 -287.16699219 202.29199219 C-268.7805112 182.92253817 -268.7805112 182.92253817 -251 163 C-251.30550781 162.41734375 -251.61101562 161.8346875 -251.92578125 161.234375 C-254.39791402 156.09233884 -255.66660352 150.68284795 -254.73828125 145.0234375 C-252.96859468 140.17318541 -249.20142539 136.27737029 -244.78515625 133.71484375 C-241.64657468 132.90928915 -239.15283903 133.26756398 -235.97216797 133.68945312 C-230.77572157 134.25363239 -226.20184362 134.48351166 -221.72802734 131.46923828 C-217.28046598 127.46891772 -213.55149099 122.90017346 -209.84277344 118.22265625 C-207.3962792 115.27182377 -204.69614515 112.6406415 -201.95703125 109.96411133 C-199.42264195 107.4205532 -197.09395484 104.72816639 -194.75097656 102.00927734 C-181.97389546 87.34734518 -168.33219394 72.99271609 -153 61 C-151.94400105 60.14354155 -150.88936977 59.28539471 -149.8359375 58.42578125 C-116.25102272 31.22562632 -45.32060329 -13.1575945 0 0 Z " fill="#26D4BB" transform="translate(873,207)"/>
<path d="M0 0 C4.07132703 2.42304724 7.61263058 4.83833401 9.90625 9.05859375 C10.51233318 12.72099384 10.77638533 16.35095732 10.90625 20.05859375 C6.94625 20.55359375 6.94625 20.55359375 2.90625 21.05859375 C3.89625 21.71859375 4.88625 22.37859375 5.90625 23.05859375 C5.90625 23.71859375 5.90625 24.37859375 5.90625 25.05859375 C6.47988281 25.30738281 7.05351563 25.55617188 7.64453125 25.8125 C13.86648755 29.24048629 18.5762156 35.55146261 22.90625 41.05859375 C27.10893252 46.30638779 31.71420544 51.05815856 36.46875 55.80859375 C37.17708984 56.51757812 37.88542969 57.2265625 38.61523438 57.95703125 C42.67518995 61.9755971 46.84075823 65.81855708 51.16674805 69.54882812 C53.17347932 71.29053005 55.09674635 73.1124083 57.03125 74.93359375 C66.74999956 83.53925575 78.21704697 89.61175991 89.89599609 95.10888672 C91.21334226 95.73124239 92.5263988 96.36277917 93.83447266 97.00439453 C105.13316226 102.54217238 116.61217735 105.52419657 128.90625 108.05859375 C130.01484375 108.29449219 131.1234375 108.53039062 132.265625 108.7734375 C173.01519845 116.84091086 214.95077775 105.28449137 249.046875 82.63671875 C274.61637166 65.14179998 292.43059263 41.35315451 304.03930664 12.83789062 C304.5612561 11.55688477 304.5612561 11.55688477 305.09375 10.25 C305.54814453 9.10833374 305.54814453 9.10833374 306.01171875 7.94360352 C306.90625 6.05859375 306.90625 6.05859375 308.90625 4.05859375 C309.89625 4.05859375 310.88625 4.05859375 311.90625 4.05859375 C313.64601205 7.81555498 314.05525122 9.54365468 312.88671875 13.58203125 C312.31169147 14.8761789 311.71245964 16.15975196 311.09375 17.43359375 C310.77116211 18.12767334 310.44857422 18.82175293 310.11621094 19.53686523 C301.31239098 38.11828639 290.17799263 54.27332515 275.90625 69.05859375 C275.18050781 69.83589844 274.45476562 70.61320313 273.70703125 71.4140625 C263.82958304 81.72969696 252.28472454 90.00720904 239.90625 97.05859375 C239.28443848 97.42194824 238.66262695 97.78530273 238.02197266 98.15966797 C226.49743652 104.85400466 214.66730033 109.28753978 201.90625 113.05859375 C200.771875 113.39761719 199.6375 113.73664063 198.46875 114.0859375 C183.78708863 118.0954673 169.00693282 118.44586894 153.90625 118.05859375 C153.17792969 118.0445752 152.44960938 118.03055664 151.69921875 118.01611328 C105.91011217 116.98607076 64.60754229 94.56175974 33.15625 62.34765625 C30.82600477 59.965892 28.45905838 57.7042732 25.90625 55.55859375 C23.21639909 53.24961287 20.65883048 50.86575799 18.1640625 48.34765625 C17.48601563 47.66638672 16.80796875 46.98511719 16.109375 46.28320312 C14.73948664 44.89915239 13.37223184 43.51248935 12.0078125 42.12304688 C11.37875 41.48560547 10.7496875 40.84816406 10.1015625 40.19140625 C9.53453613 39.61277832 8.96750977 39.03415039 8.38330078 38.43798828 C6.00255685 36.2146489 5.0572048 36.0565638 1.7109375 36.1015625 C0.41414062 36.14925781 -0.88265625 36.19695313 -2.21875 36.24609375 C-9.97727585 36.38258036 -14.6523496 34.97054793 -20.53125 29.99609375 C-24.36904549 25.23722734 -23.49377798 18.8436137 -23.09375 13.05859375 C-21.33199458 7.22277893 -16.90811503 3.5820101 -12.09375 0.05859375 C-7.86077618 -1.35239752 -4.19327951 -1.88541112 0 0 Z " fill="#28DAB2" transform="translate(740.09375,528.94140625)"/>
<path d="M0 0 C1.08796875 0.38027344 2.1759375 0.76054687 3.296875 1.15234375 C11.57863305 4.15195612 19.37789101 7.99692059 27.1796875 12.05517578 C28.76997626 12.88060732 30.36869756 13.68975153 31.96875 14.49609375 C44.48101122 20.99142936 55.0781085 29.56457627 65.19287109 39.27392578 C67.18380932 41.17556497 69.19364835 43.05574012 71.20703125 44.93359375 C83.18715521 56.12018237 83.18715521 56.12018237 88.74414062 61.73095703 C90.06942847 63.0688979 91.4094238 64.3922217 92.75 65.71484375 C95 68 95 68 96.625 70.00390625 C98.82165771 72.46942571 100.46954352 73.85859694 103.85498047 74.17138672 C106.84569919 74.23208774 109.80038352 74.18305086 112.78369141 73.95581055 C118.09974903 73.62197801 120.7277482 74.50568062 125 78 C128.70149355 81.40137245 129.92628454 82.78671604 130.23828125 87.921875 C130.26892139 89.53114848 130.29340049 91.14054818 130.3125 92.75 C130.34150391 93.54921875 130.37050781 94.3484375 130.40039062 95.171875 C130.45844556 100.60224476 129.71864617 103.76821867 126 108 C120.766125 112.05839815 115.35692073 111.76721457 109 111 C104.58329061 109.46751187 100.89862177 106.6501163 98 103 C96.0336857 98.57579283 95.80764419 94.80889537 96 90 C97.98 90 99.96 90 102 90 C94.6332284 78.78670896 85.73143762 69.35654823 76.25 59.9375 C75.36445938 59.05618912 75.36445938 59.05618912 74.46102905 58.15707397 C68.64233624 52.38108642 62.8022755 46.66906805 56.56591797 41.34057617 C54.63091945 39.6840316 52.79270158 37.93241359 50.9375 36.1875 C34.24390721 21.52078525 12.41209759 10.68028353 -9 5 C-9.67482422 4.82033691 -10.34964844 4.64067383 -11.04492188 4.45556641 C-51.69430827 -6.11143472 -93.73224252 -0.92021394 -130.34765625 19.80859375 C-144.59816352 28.19784919 -158.53749155 38.09470323 -169 51 C-170.22910516 52.44129595 -171.45821887 53.8825846 -172.6875 55.32373047 C-184.50323228 69.28897654 -192.35002948 84.04058101 -198.7734375 101.0859375 C-200 104 -200 104 -202 106 C-202.99 106 -203.98 106 -205 106 C-206.65379796 102.69240407 -206.4986656 99.58317332 -205.39111328 96.06689453 C-204.5109549 93.86519579 -203.55813521 91.71446862 -202.5625 89.5625 C-202.20269043 88.77335205 -201.84288086 87.9842041 -201.47216797 87.17114258 C-193.24609301 69.52534271 -182.05725293 54.49911737 -168.27856445 40.83251953 C-166.68611219 39.24861964 -165.11334988 37.6468132 -163.54101562 36.04296875 C-154.44610369 26.88483901 -144.47066103 19.58751601 -133.125 13.375 C-132.45919922 13.00729492 -131.79339844 12.63958984 -131.10742188 12.26074219 C-91.96806066 -9.08296046 -42.41286904 -15.92859992 0 0 Z " fill="#21CACB" transform="translate(355,317)"/>
<path d="M0 0 C23.71435252 0.34099069 46.49945094 5.84128873 69 13 C69.8338623 13.2592627 70.66772461 13.51852539 71.52685547 13.78564453 C103.33514978 23.69145337 130.84262325 40.19763456 155.41796875 62.6640625 C156.82005427 63.93251506 158.22964872 65.19361707 159.6751709 66.41233826 C165.31007473 71.19473946 170.28253909 76.4554362 175.30078125 81.87109375 C177.56274857 84.25309142 179.82959284 86.63026518 182.1009798 89.00327969 C184.44706553 91.45965287 186.7727607 93.93044827 189.06176758 96.44018555 C199.35178639 108.78293919 199.35178639 108.78293919 213.34521484 115.14111328 C216.63202019 115.2201708 219.68695984 114.87238784 222.92260742 114.33227539 C227.74782907 113.58715801 230.09389451 115.20257025 234 118 C238.91437766 123.43168057 239.30135305 126.83783115 239.20703125 134.0234375 C238.82726373 139.48349122 236.65961063 142.58057537 232.875 146.3125 C228.81907002 149.5504273 225.13800178 150.37007383 220 150 C213.88271787 148.83721084 209.24363173 146.55414137 205 142 C203.24172165 137.60430413 202.6629258 133.71903884 203 129 C204 128 204 128 207.0625 127.9375 C208.031875 127.958125 209.00125 127.97875 210 128 C205.5689231 122.71052886 200.919239 117.73148764 196.06640625 112.828125 C195.31141342 112.06506042 194.55642059 111.30199585 193.77854919 110.51580811 C192.18400959 108.90750362 190.58795831 107.30069662 188.99047852 105.6953125 C187.38339983 104.07676046 185.7807821 102.45376574 184.18286133 100.82617188 C175.32455551 91.80387425 166.54672043 83.35413848 156.09863281 76.19189453 C153.23655773 74.16733496 150.72386418 72.03799227 148.1875 69.625 C110.29449383 34.50158232 55.71312781 15.88540861 5.21630859 10.30957031 C3 10 3 10 -1 9 C-0.67 6.03 -0.34 3.06 0 0 Z " fill="#26D4BC" transform="translate(325,200)"/>
<path d="M0 0 C4.74966577 0.07724996 9.0711481 1.37096232 13.59765625 2.71875 C14.96216919 3.11815796 14.96216919 3.11815796 16.35424805 3.52563477 C61.56167045 17.04723864 100.6959721 39.72304386 134.03515625 73.21875 C134.8859375 74.04632813 135.73671875 74.87390625 136.61328125 75.7265625 C142.90334027 81.88787762 148.60020362 88.27566915 154.03515625 95.21875 C154.82535156 96.20359375 155.61554688 97.1884375 156.4296875 98.203125 C183.82368586 132.65603274 201.07754319 173.49867415 209.84765625 216.40625 C210.06695801 217.46996826 210.28625977 218.53368652 210.51220703 219.62963867 C211.55149161 224.90281262 212.41453062 229.84056042 212.03515625 235.21875 C211.03515625 236.21875 211.03515625 236.21875 207.97265625 236.28125 C207.00328125 236.260625 206.03390625 236.24 205.03515625 236.21875 C204.90052979 235.26343384 204.90052979 235.26343384 204.76318359 234.28881836 C199.64448641 198.64598486 189.31454179 166.28249108 171.03515625 135.21875 C170.63039063 134.53039062 170.225625 133.84203125 169.80859375 133.1328125 C163.97955642 123.31746577 157.4858126 114.13303489 150.49365234 105.11523438 C149.12641955 103.33741979 147.79001017 101.54080155 146.4609375 99.734375 C109.96760387 50.81673283 53.33304705 22.51448041 -3.96484375 6.21875 C-4.00756475 4.55263095 -4.00548207 2.88492115 -3.96484375 1.21875 C-2.96484375 0.21875 -2.96484375 0.21875 0 0 Z " fill="#33F08E" transform="translate(957.96484375,207.78125)"/>
<path d="M0 0 C2.31 0 4.62 0 7 0 C7.15033691 0.67353516 7.30067383 1.34707031 7.45556641 2.04101562 C17.34767322 45.91621046 37.48622487 82.00402922 76 107 C80.57093213 109.84673227 85.26275277 112.44233131 90 115 C90.89203125 115.51046875 91.7840625 116.0209375 92.703125 116.546875 C107.02730556 124.33721881 123.94473102 129.38534651 140 132 C141.02480469 132.17015625 142.04960937 132.3403125 143.10546875 132.515625 C172.93589422 136.22572807 202.10144357 131.9996511 230 121 C232 123 232 123 232 127 C216.10142003 132.86154907 201.15475093 136.74220131 184.3125 138.6875 C183.17159912 138.81930664 182.03069824 138.95111328 180.85522461 139.08691406 C140.44811758 143.43497779 95.96776855 132.59918966 64 107 C63.030625 106.23816406 62.06125 105.47632813 61.0625 104.69140625 C52.05377607 97.47191499 43.22966408 90.04067337 36 81 C35.56961426 80.46552246 35.13922852 79.93104492 34.69580078 79.38037109 C16.31492591 56.35603783 3.70844771 29.37480952 0 0 Z " fill="#1ABBE4" transform="translate(142,501)"/>
<path d="M0 0 C0.48726562 0.32871094 0.97453125 0.65742187 1.4765625 0.99609375 C3.97776183 2.67417112 6.48810665 4.33796961 9 6 C10.52560547 7.01513672 10.52560547 7.01513672 12.08203125 8.05078125 C40.12194397 26.52330248 68.82113165 37.42536867 102 43 C103.29550781 43.22558594 104.59101562 43.45117188 105.92578125 43.68359375 C134.7461226 47.88354299 165.22058832 45.50883698 193 37 C193.67885254 36.79616699 194.35770508 36.59233398 195.05712891 36.38232422 C203.14327866 33.92855504 210.68657763 30.9176202 218.1953125 27.0390625 C221.32729193 25.878747 222.85459722 26.02066214 226 27 C226.33 28.32 226.66 29.64 227 31 C206.55723188 40.9785434 184.53053945 47.18032872 162 50 C161.26289795 50.09571289 160.5257959 50.19142578 159.76635742 50.29003906 C108.80733929 56.20232352 53.44144427 43.78788454 11.97900391 13.42773438 C7.41985818 10.13858014 2.70176441 7.08015395 -2 4 C-1.34 2.68 -0.68 1.36 0 0 Z " fill="#27D7B7" transform="translate(763,650)"/>
<path d="M0 0 C0.67869141 0.18256348 1.35738281 0.36512695 2.05664062 0.55322266 C11.19030427 3.05873373 19.9967932 6.4336677 28.8125 9.875 C30.36952637 10.47284302 30.36952637 10.47284302 31.95800781 11.08276367 C41.98431173 15.08449024 50.52611691 20.87958117 59.296875 27.08984375 C62.55794828 29.3942727 65.84024779 31.66701213 69.125 33.9375 C69.70620605 34.33952637 70.28741211 34.74155273 70.88623047 35.15576172 C72.25731733 36.10408647 73.6286331 37.05208025 75 38 C74.67 38.99 74.34 39.98 74 41 C70.21508124 39.61310739 67.01697696 37.85743595 63.625 35.6875 C37.75414163 19.51243534 12.9955207 8.91271757 -16.75 2.25 C-18.05928467 1.95198486 -18.05928467 1.95198486 -19.39501953 1.64794922 C-33.58598571 -1.40137089 -47.77415707 -2.38724962 -62.25 -2.3125 C-63.39003479 -2.30926727 -63.39003479 -2.30926727 -64.55310059 -2.30596924 C-91.19216366 -2.18538318 -119.29102313 2.3066374 -143.22265625 14.6640625 C-146.37825696 16.18194639 -148.54181602 16.24701314 -152 16 C-152 14.68 -152 13.36 -152 12 C-145.02188959 8.27878696 -138.01288295 5.39132175 -130.5 2.9375 C-129.44611084 2.59243408 -128.39222168 2.24736816 -127.30639648 1.8918457 C-85.95733435 -11.38065401 -41.77185729 -11.42665819 0 0 Z " fill="#22CDC7" transform="translate(365,263)"/>
</svg>
