<?xml version="1.0" encoding="UTF-8"?>
<svg version="1.1" xmlns="http://www.w3.org/2000/svg" width="225" height="225">
<path d="M0 0 C74.25 0 148.5 0 225 0 C225 74.25 225 148.5 225 225 C150.75 225 76.5 225 0 225 C0 150.75 0 76.5 0 0 Z " fill="#00C8C5" transform="translate(0,0)"/>
<path d="M0 0 C1.3303125 0.86625 1.3303125 0.86625 2.6875 1.75 C11.80166058 10.61783192 16.06793868 21.42122188 16.5 34.0625 C16.0406396 47.84331189 9.81054201 57.89379004 1 68 C1.75023437 68.3403125 2.50046875 68.680625 3.2734375 69.03125 C21.3520596 77.59241109 34.93394962 91.77333441 42.34765625 110.3828125 C45.38398275 119.2414855 46.10285528 126.64016919 46 136 C41.71 136 37.42 136 33 136 C32.7525 133.916875 32.505 131.83375 32.25 129.6875 C30.96482154 120.67302132 28.13829606 113.06967732 24 105 C24 104.34 24 103.68 24 103 C23.34 103 22.68 103 22 103 C21.505 102.195625 21.01 101.39125 20.5 100.5625 C14.14749033 90.73233906 4.37817855 85.57450849 -6 81 C-6.83917969 80.62746094 -7.67835938 80.25492187 -8.54296875 79.87109375 C-21.55956198 75.25630791 -38.94988997 77.08958946 -51.3359375 82.44140625 C-61.10550948 87.34896514 -69.24308887 93.64501941 -75 103 C-75.66 103 -76.32 103 -77 103 C-77.2784375 103.87785156 -77.556875 104.75570312 -77.84375 105.66015625 C-78.89789751 108.70507559 -80.14243988 111.51957353 -81.5 114.4375 C-84.51534439 121.50888286 -85.30401582 128.39611319 -86 136 C-90.29 136 -94.58 136 -99 136 C-99.63621454 118.18599289 -93.91433733 101.85987413 -82.171875 88.296875 C-73.640914 79.27492344 -65.0802732 73.35322241 -54 68 C-54.845625 67.0925 -55.69125 66.185 -56.5625 65.25 C-66.62676826 53.48843234 -69.79677027 42.27143014 -69 27 C-67.50698477 15.20517965 -60.27962297 6.47583123 -51.55859375 -1.12890625 C-48.9501075 -3.03648627 -46.44850742 -4.37475161 -43.5 -5.6875 C-42.5821875 -6.10386719 -41.664375 -6.52023438 -40.71875 -6.94921875 C-26.75085957 -12.34772813 -11.85888134 -8.19141248 0 0 Z " fill="#F6FBFC" transform="translate(139,41)"/>
<path d="M0 0 C0.33 0 0.66 0 1 0 C1 34.65 1 69.3 1 105 C-33.65 105 -68.3 105 -104 105 C-104 104.67 -104 104.34 -104 104 C-103.030625 103.91363281 -102.06125 103.82726562 -101.0625 103.73828125 C-73.06539316 100.93363156 -44.71648611 88.04239379 -26.5703125 66.0390625 C-11.39189322 46.32977179 -1.67597323 25.08180631 0 0 Z " fill="#FDFEFE" transform="translate(224,120)"/>
<path d="M0 0 C0.33 0 0.66 0 1 0 C1.08636719 0.969375 1.17273438 1.93875 1.26171875 2.9375 C2.28602094 13.14196598 4.54950482 22.35475617 8 32 C8.35835937 33.02609375 8.71671875 34.0521875 9.0859375 35.109375 C16.01697144 53.29719455 28.47823693 69.42596857 44 81 C44.78890625 81.60328125 45.5778125 82.2065625 46.390625 82.828125 C63.6182887 95.49216918 82.76190373 102.3009523 104 104 C104 104.33 104 104.66 104 105 C69.68 105 35.36 105 0 105 C0 70.35 0 35.7 0 0 Z " fill="#FDFEFE" transform="translate(0,120)"/>
<path d="M0 0 C34.65 0 69.3 0 105 0 C105 33.33 105 66.66 105 101 C104.67 101 104.34 101 104 101 C103.82984375 99.99582031 103.6596875 98.99164063 103.484375 97.95703125 C98.21012946 67.74627176 84.10038612 40.33135516 58.75097656 22.22265625 C40.72636009 9.63658831 21.71985783 3.14377817 0 1 C0 0.67 0 0.34 0 0 Z " fill="#FDFEFE" transform="translate(120,0)"/>
<path d="M0 0 C34.32 0 68.64 0 104 0 C104 0.33 104 0.66 104 1 C102.77925781 1.17015625 101.55851562 1.3403125 100.30078125 1.515625 C75.15321595 5.15280726 53.52311594 14.22051281 35 32 C34.13375 32.825 33.2675 33.65 32.375 34.5 C31.59125 35.325 30.8075 36.15 30 37 C29.12988281 37.87785156 29.12988281 37.87785156 28.2421875 38.7734375 C11.3391541 56.60448058 3.55250462 80.06651552 1 104 C0.67 104 0.34 104 0 104 C0 69.68 0 35.36 0 0 Z " fill="#FDFEFE" transform="translate(0,0)"/>
<path d="M0 0 C1.5075071 0.91310413 2.98985162 1.86968862 4.4375 2.875 C5.09234375 3.28621094 5.7471875 3.69742188 6.421875 4.12109375 C12.16553205 8.25701774 14.57019605 14.20723767 16.4375 20.875 C17.82005107 29.78881612 15.72688112 37.31591777 10.484375 44.58203125 C4.8542132 51.30475942 -0.08041967 55.27016954 -8.890625 56.2421875 C-18.7445451 56.60477763 -26.42546929 55.0337984 -33.875 48.375 C-39.49157596 42.23436219 -42.73105889 34.69904452 -43.1875 26.375 C-42.7388559 18.20495474 -39.81776529 10.47601412 -33.75 4.875 C-32.38029873 3.83949571 -30.98498165 2.83671547 -29.5625 1.875 C-28.70591797 1.22724609 -28.70591797 1.22724609 -27.83203125 0.56640625 C-20.19055715 -4.30861807 -7.95970661 -3.76653804 0 0 Z " fill="#01C8C5" transform="translate(125.5625,48.125)"/>
<path d="M0 0 C12.79430575 1.79612369 24.36685565 10.95458997 34 19 C34.72445312 19.56074219 35.44890625 20.12148438 36.1953125 20.69921875 C53.56526412 34.65847137 66.54299362 58.58015169 71 80 C71.2890625 83.28515625 71.2890625 83.28515625 71 86 C70.01 86.66 69.02 87.32 68 88 C67.505 84.535 67.505 84.535 67 81 C66.67 82.98 66.34 84.96 66 87 C65.67 87 65.34 87 65 87 C64.32546899 79.31516461 63.8432436 71.71589817 64 64 C62.68 64 61.36 64 60 64 C60 62.68 60 61.36 60 60 C59.01 60 58.02 60 57 60 C57.33 59.01 57.66 58.02 58 57 C57.34 57 56.68 57 56 57 C56 54.03 56 51.06 56 48 C53.36 48 50.72 48 48 48 C48 45.36 48 42.72 48 40 C45.69 40 43.38 40 41 40 C39.89771304 35.59085217 39.92345464 31.51617599 40 27 C39.34 27 38.68 27 38 27 C38 26.01 38 25.02 38 24 C34.37 24 30.74 24 27 24 C27.33 22.68 27.66 21.36 28 20 C27.38125 19.71125 26.7625 19.4225 26.125 19.125 C24 18 24 18 22 16 C18.91652174 15.83318891 18.91652174 15.83318891 16 16 C16 13.36 16 10.72 16 8 C15.11248047 8.01740234 15.11248047 8.01740234 14.20703125 8.03515625 C9.95882148 8.08366762 6.16843985 7.88421451 2 7 C1.01 7.495 1.01 7.495 0 8 C0 5.36 0 2.72 0 0 Z " fill="#08A5F1" transform="translate(152,8)"/>
<path d="M0 0 C0.33 0 0.66 0 1 0 C1.0270043 1.45823212 1.04639787 2.91660675 1.0625 4.375 C1.07410156 5.18710937 1.08570312 5.99921875 1.09765625 6.8359375 C1 9 1 9 0 11 C-0.66 11 -1.32 11 -2 11 C-1.67 11.99 -1.34 12.98 -1 14 C-1.33 14.66 -1.66 15.32 -2 16 C-4.0625 16.625 -4.0625 16.625 -6 17 C-6.16858098 19.0831793 -6.33479255 21.16655044 -6.5 23.25 C-6.5928125 24.41015625 -6.685625 25.5703125 -6.78125 26.765625 C-6.99426886 29.91526096 -7.01564983 33.02797161 -6.96484375 36.18359375 C-6.85953878 44.86373166 -6.85953878 44.86373166 -8 48 C-10.0625 49.3125 -10.0625 49.3125 -12 50 C-11.65213292 51.97536745 -11.65213292 51.97536745 -11 54 C-10.34 54.33 -9.68 54.66 -9 55 C-9.33 55.66 -9.66 56.32 -10 57 C-10.66 57 -11.32 57 -12 57 C-12 58.98 -12 60.96 -12 63 C-10.35 63.33 -8.7 63.66 -7 64 C-7.185625 65.134375 -7.37125 66.26875 -7.5625 67.4375 C-7.7790625 69.2009375 -7.7790625 69.2009375 -8 71 C-7.67 71.33 -7.34 71.66 -7 72 C-6.92697454 73.9570822 -6.91636694 75.91666988 -6.9375 77.875 C-6.94652344 78.94492188 -6.95554687 80.01484375 -6.96484375 81.1171875 C-6.97644531 82.06851563 -6.98804688 83.01984375 -7 84 C-7 84.99 -7 85.98 -7 87 C-8 89.1875 -8 89.1875 -9 91 C-19.28508325 68.55981837 -16.65268432 39.31402325 -8.47265625 16.5 C-6.05779238 10.76069488 -3.14406632 5.37300095 0 0 Z " fill="#0DF092" transform="translate(15,56)"/>
<path d="M0 0 C1.98 0 3.96 0 6 0 C6.93423645 3.01031744 7.04449911 3.86650268 6 7 C6.66 7.66 7.32 8.32 8 9 C8.125 12.625 8.125 12.625 8 16 C10.64 16 13.28 16 16 16 C16 18.64 16 21.28 16 24 C19.28696233 24.79953138 20.71023192 25.09658936 24 24 C23.67 25.98 23.34 27.96 23 30 C23.99 30.33 24.98 30.66 26 31 C26 33.64 26 36.28 26 39 C30.76307437 39.95261487 35.1666528 40.08333357 40 40 C40 42.31 40 44.62 40 47 C42.64 47.33 45.28 47.66 48 48 C48 49.98 48 51.96 48 54 C46.68 54.66 45.36 55.32 44 56 C25.10801682 41.68701884 8.49311374 25.77698684 0 3 C0 2.01 0 1.02 0 0 Z " fill="#0AEA99" transform="translate(8,152)"/>
<path d="M0 0 C0.66 0.33 1.32 0.66 2 1 C2.042721 2.66611905 2.04063832 4.33382885 2 6 C1.67 6.33 1.34 6.66 1 7 C-1 7 -3 7 -5 7 C-7.81503366 7.45826129 -10.28933163 8.09644388 -13 9 C-14.22969878 12.51190809 -14.22969878 12.51190809 -15 16 C-17.31 16.33 -19.62 16.66 -22 17 C-22 19.31 -22 21.62 -22 24 C-22.33 23.34 -22.66 22.68 -23 22 C-25.91630113 21.94250443 -25.91630113 21.94250443 -29 23 C-30.74570339 26.40663508 -30.74570339 26.40663508 -32 30 C-35 32 -35 32 -39 32 C-38.67 33.32 -38.34 34.64 -38 36 C-38.99 36.495 -38.99 36.495 -40 37 C-40.33 37.99 -40.66 38.98 -41 40 C-43.475 40.495 -43.475 40.495 -46 41 C-46 42.98 -46 44.96 -46 47 C-47.98 47.495 -47.98 47.495 -50 48 C-50 47.34 -50 46.68 -50 46 C-50.99 46 -51.98 46 -53 46 C-50.91248614 40.01437352 -47.00857228 35.81180226 -43 31 C-42.51402344 30.37738281 -42.02804688 29.75476563 -41.52734375 29.11328125 C-37.09196399 23.56582377 -31.59988281 19.32123006 -26 15 C-24.82630859 14.08541016 -24.82630859 14.08541016 -23.62890625 13.15234375 C-18.5277999 9.37597666 -13.1437426 6.37175207 -7.5 3.5 C-6.43906128 2.95557251 -6.43906128 2.95557251 -5.35668945 2.40014648 C-3.60228488 1.53390258 -1.80359605 0.7585217 0 0 Z " fill="#08E69E" transform="translate(70,8)"/>
<path d="M0 0 C3.60100483 5.40150725 3.09404162 10.69921145 3 17 C7.29 17 11.58 17 16 17 C15.67 11.39 15.34 5.78 15 0 C17 1 17 1 18 3 C18.99 3.33 19.98 3.66 21 4 C21 4.99 21 5.98 21 7 C21.66 7.33 22.32 7.66 23 8 C23 12.29 23 16.58 23 21 C17.47299331 23.76350335 13.38424777 24.13787355 7.25 24.0625 C6.55261719 24.05798828 5.85523438 24.05347656 5.13671875 24.04882812 C3.42444197 24.0371002 1.71220967 24.01916653 0 24 C-0.8448041 20.21099058 -0.9222178 17.78109299 0 14 C0.33944795 12.00102872 0.67421616 10.00124361 1 8 C0.34 8 -0.32 8 -1 8 C-0.67 5.36 -0.34 2.72 0 0 Z " fill="#04AFE0" transform="translate(169,160)"/>
<path d="M0 0 C3.04386724 -0.08226668 5.07175348 0.02391783 8 1 C8.125 8.625 8.125 8.625 7 12 C7.31015501 13.33891477 7.6467169 14.67181329 8 16 C8.07952806 17.73285648 8.10774143 19.46847386 8.09765625 21.203125 C8.09443359 22.1828125 8.09121094 23.1625 8.08789062 24.171875 C8.07951172 25.18765625 8.07113281 26.2034375 8.0625 27.25 C8.05798828 28.28125 8.05347656 29.3125 8.04882812 30.375 C8.03706088 32.91672573 8.02062011 35.45833319 8 38 C5.03 38.495 5.03 38.495 2 39 C0.55475116 43.42605006 0.55475116 43.42605006 0 48 C-2.64 48 -5.28 48 -8 48 C-7.52949219 47.24976563 -7.05898437 46.49953125 -6.57421875 45.7265625 C0.58741159 33.95361324 4.06336829 23.4278859 1.54296875 9.46875 C1.0675067 7.63531359 0.53808709 5.81604392 0 4 C0 2.68 0 1.36 0 0 Z " fill="#0AB9D9" transform="translate(152,56)"/>
<path d="M0 0 C1.41655793 -0.0272415 2.83327045 -0.04650467 4.25 -0.0625 C5.43335938 -0.07990234 5.43335938 -0.07990234 6.640625 -0.09765625 C8.90691002 -0.00385306 10.8288895 0.36758937 13 1 C13 3.31 13 5.62 13 8 C15.64 8 18.28 8 21 8 C21 10.64 21 13.28 21 16 C23.64 16 26.28 16 29 16 C29 18.64 29 21.28 29 24 C31.64 24 34.28 24 37 24 C36.7215625 25.7015625 36.7215625 25.7015625 36.4375 27.4375 C36.293125 28.613125 36.14875 29.78875 36 31 C36.33 31.33 36.66 31.66 37 32 C37.07319621 34.69654854 37.09242537 37.36691458 37.0625 40.0625 C37.05798828 40.82111328 37.05347656 41.57972656 37.04882812 42.36132812 C37.0370068 44.24091871 37.01907078 46.12046899 37 48 C35.71067188 45.5639137 34.65164127 43.13009283 33.625 40.56640625 C26.74005688 23.3917358 16.07858168 10.5280484 0 1 C0 0.67 0 0.34 0 0 Z " fill="#08B6DA" transform="translate(147,112)"/>
<path d="M0 0 C4.03420177 0.55224572 6.12391234 2.60438981 9.0625 5.3125 C9.91972656 6.09238281 10.77695313 6.87226563 11.66015625 7.67578125 C13.69570082 9.69773287 15.43810604 11.59826798 17 14 C17 14.66 17 15.32 17 16 C17.66 16 18.32 16 19 16 C20.03544174 17.90881434 21.05290085 19.82739204 22.0625 21.75 C22.63097656 22.81734375 23.19945312 23.8846875 23.78515625 24.984375 C25.01044806 28.02593537 25.25348607 29.04893565 24 32 C21.69 32 19.38 32 17 32 C16.34 26.72 15.68 21.44 15 16 C13.02 16 11.04 16 9 16 C9.33 14.35 9.66 12.7 10 11 C9.34 10.67 8.68 10.34 8 10 C8 9.34 8 8.68 8 8 C5.36 8 2.72 8 0 8 C0.185625 7.236875 0.37125 6.47375 0.5625 5.6875 C1.22819173 2.91032625 1.22819173 2.91032625 0 0 Z " fill="#08B8DC" transform="translate(144,128)"/>
<path d="M0 0 C2.64 0 5.28 0 8 0 C8 2.97 8 5.94 8 9 C12.29 9 16.58 9 21 9 C21 6.03 21 3.06 21 0 C21.66 0 22.32 0 23 0 C23.16777183 1.79156352 23.33418294 3.5832545 23.5 5.375 C23.5928125 6.37273437 23.685625 7.37046875 23.78125 8.3984375 C23.99654445 10.95890366 24 13.42909382 24 16 C18.39 16 12.78 16 7 16 C7 14.02 7 12.04 7 10 C6.34 10 5.68 10 5 10 C4.67 10.99 4.34 11.98 4 13 C4 12.34 4 11.68 4 11 C3.34 10.67 2.68 10.34 2 10 C2.33 8.02 2.66 6.04 3 4 C2.01 3.67 1.02 3.34 0 3 C0 2.01 0 1.02 0 0 Z " fill="#06E59F" transform="translate(32,168)"/>
<path d="M0 0 C4.95 0 9.9 0 15 0 C10.49321101 4.50678899 10.49321101 4.50678899 7.64453125 6.21875 C6.7167688 6.77864624 6.7167688 6.77864624 5.77026367 7.34985352 C5.12420166 7.72940186 4.47813965 8.1089502 3.8125 8.5 C2.81536987 9.09155884 2.81536987 9.09155884 1.7980957 9.69506836 C-10.68109933 17 -10.68109933 17 -15 17 C-15.33 14.69 -15.66 12.38 -16 10 C-12.5233662 7.85663839 -9.78770805 7.78722374 -5.75 7.875 C-4.67234375 7.89304688 -3.5946875 7.91109375 -2.484375 7.9296875 C-1.25460938 7.96449219 -1.25460938 7.96449219 0 8 C0 5.36 0 2.72 0 0 Z " fill="#0DB5DF" transform="translate(168,200)"/>
<path d="M0 0 C2.97 0.495 2.97 0.495 6 1 C4.57878456 4.78990783 2.83307775 8.29166466 0.90234375 11.83984375 C-1.21073518 16.89842663 -1.13591516 22.15403935 -1.125 27.5625 C-1.12886719 29.48255859 -1.12886719 29.48255859 -1.1328125 31.44140625 C-1.02078522 34.44307844 -0.70355355 37.09086189 0 40 C-2.64 40 -5.28 40 -8 40 C-7.835 39.4225 -7.67 38.845 -7.5 38.25 C-6.85537969 35.73335631 -6.85537969 35.73335631 -7 32 C-6.01 31.67 -5.02 31.34 -4 31 C-4 29.02 -4 27.04 -4 25 C-4.66 25.66 -5.32 26.32 -6 27 C-6 20.66666667 -6 14.33333333 -6 8 C-4.02 8 -2.04 8 0 8 C0 5.36 0 2.72 0 0 Z " fill="#07D9AF" transform="translate(72,48)"/>
<path d="M0 0 C0.90105469 0.01804687 1.80210938 0.03609375 2.73046875 0.0546875 C3.41753906 0.07789062 4.10460937 0.10109375 4.8125 0.125 C2.7293244 2.36841987 0.77055883 4.15196218 -1.8125 5.8125 C-11.55723746 12.19444393 -18.01183902 20.47366509 -24.1875 30.125 C-25.02673559 27.01916751 -25.27233421 24.34870003 -25.1875 21.125 C-25.1875 20.465 -25.1875 19.805 -25.1875 19.125 C-25.1875 18.135 -25.1875 17.145 -25.1875 16.125 C-22.8775 16.125 -20.5675 16.125 -18.1875 16.125 C-17.59017181 13.36235711 -17.1875 10.96467231 -17.1875 8.125 C-15.7953125 8.186875 -15.7953125 8.186875 -14.375 8.25 C-11.02940281 8.39636339 -11.02940281 8.39636339 -8.1875 6.125 C-8.1875 4.805 -8.1875 3.485 -8.1875 2.125 C-4.87379 -0.08414 -3.8428979 -0.09981553 0 0 Z " fill="#0ADCA9" transform="translate(73.1875,111.875)"/>
<path d="M0 0 C0.66 0.33 1.32 0.66 2 1 C1.67 2.98 1.34 4.96 1 7 C0.05125 7.20625 -0.8975 7.4125 -1.875 7.625 C-2.90625 8.07875 -3.9375 8.5325 -5 9 C-5.4640625 10.4540625 -5.4640625 10.4540625 -5.9375 11.9375 C-7 15 -7 15 -8.66796875 16.05859375 C-10.41365025 16.78683214 -12.20557487 17.40185829 -14 18 C-13.95875 18.9075 -13.9175 19.815 -13.875 20.75 C-13.99889616 23.97130006 -14.45697687 25.27701801 -16 28 C-16.36784131 29.3242287 -16.71202981 30.65613912 -17 32 C-17.61875 32.04125 -18.2375 32.0825 -18.875 32.125 C-19.57625 32.41375 -20.2775 32.7025 -21 33 C-22.3045656 35.99615946 -22.3045656 35.99615946 -23 39 C-23.33 39 -23.66 39 -24 39 C-23.27595302 30.67345977 -19.85869306 23.33151682 -16 16 C-15.34 16 -14.68 16 -14 16 C-13.76152344 15.27167969 -13.52304688 14.54335937 -13.27734375 13.79296875 C-11.81120198 10.58718475 -10.08917742 8.75619951 -7.5625 6.3125 C-6.78003906 5.54550781 -5.99757813 4.77851563 -5.19140625 3.98828125 C-3 2 -3 2 0 0 Z " fill="#11DAAF" transform="translate(78,128)"/>
<path d="M0 0 C4.75395111 0.63693714 8.58723078 2.54398975 12.8125 4.6875 C13.52156494 5.04545654 14.23062988 5.40341309 14.96118164 5.7722168 C28.19786825 12.59360476 28.19786825 12.59360476 30 18 C30.66 18.66 31.32 19.32 32 20 C29.25 20.25 29.25 20.25 26 20 C24.66666667 18.66666667 23.33333333 17.33333333 22 16 C18.832168 15.66551741 18.832168 15.66551741 16 16 C16 13.36 16 10.72 16 8 C15.11248047 8.01740234 15.11248047 8.01740234 14.20703125 8.03515625 C9.95882148 8.08366762 6.16843985 7.88421451 2 7 C1.01 7.495 1.01 7.495 0 8 C0 5.36 0 2.72 0 0 Z " fill="#11B8DB" transform="translate(152,8)"/>
<path d="M0 0 C4.76033058 0.92561983 4.76033058 0.92561983 6.8125 1.5625 C10.21151372 2.24230274 13.5381043 2.05769826 17 2 C17 4.31 17 6.62 17 9 C19.64 9.33 22.28 9.66 25 10 C25 11.98 25 13.96 25 16 C23.02 16.99 23.02 16.99 21 18 C4.73282672 5.67563244 4.73282672 5.67563244 0 1 C0 0.67 0 0.34 0 0 Z " fill="#0CE0A5" transform="translate(31,190)"/>
<path d="M0 0 C-2.08525834 6.32868615 -4.96585408 11.86273514 -8.5625 17.4375 C-9.14439087 18.34169678 -9.14439087 18.34169678 -9.73803711 19.26416016 C-11.6526744 22.17073772 -13.52327357 24.52327357 -16 27 C-16 22.71 -16 18.42 -16 14 C-15.01 14 -14.02 14 -13 14 C-13 13.34 -13 12.68 -13 12 C-11.68 12 -10.36 12 -9 12 C-8.36605303 7.95858806 -7.87595548 4.0934693 -8 0 C-4.71023192 -1.09658936 -3.28696233 -0.79953138 0 0 Z " fill="#0FA6F1" transform="translate(216,156)"/>
<path d="M0 0 C4.91934044 3.27956029 6.29619509 8.48384999 8 14 C9.01187838 21.0274489 7.90280059 26.5896487 5 33 C4.34 33 3.68 33 3 33 C1.61685374 27.61869659 1.94773518 22.27656857 2.0390625 16.76953125 C2.09732796 10.99153984 1.84462463 5.53387388 0 0 Z " fill="#0DC1D4" transform="translate(134,55)"/>
<path d="M0 0 C0.99 0.33 1.98 0.66 3 1 C3 1.99 3 2.98 3 4 C3.66 4.33 4.32 4.66 5 5 C5 9.29 5 13.58 5 18 C-1.1322488 21.0661244 -4.31240995 21.00313851 -11 20 C-10.34 19.34 -9.68 18.68 -9 18 C-10.65 18 -12.3 18 -14 18 C-14 17.34 -14 16.68 -14 16 C-9.38 15.67 -4.76 15.34 0 15 C0.33 11.7 0.66 8.4 1 5 C0.34 5 -0.32 5 -1 5 C-0.67 3.35 -0.34 1.7 0 0 Z " fill="#03ADED" transform="translate(187,163)"/>
<path d="M0 0 C0.99 0 1.98 0 3 0 C3 2.64 3 5.28 3 8 C5.64 8 8.28 8 11 8 C10.814375 9.134375 10.62875 10.26875 10.4375 11.4375 C10.2209375 13.2009375 10.2209375 13.2009375 10 15 C10.33 15.33 10.66 15.66 11 16 C11.07319621 18.69654854 11.09242537 21.36691458 11.0625 24.0625 C11.05798828 24.82111328 11.05347656 25.57972656 11.04882812 26.36132812 C11.0370068 28.24091871 11.01907078 30.12046899 11 32 C8.29861457 26.73695597 6.2692965 21.39262264 4.9375 15.625 C4.32323444 11.9848772 4.32323444 11.9848772 2 10 C2 8.68 2 7.36 2 6 C1.34 5.67 0.68 5.34 0 5 C0.33 4.34 0.66 3.68 1 3 C0.34 3 -0.32 3 -1 3 C-0.67 2.01 -0.34 1.02 0 0 Z " fill="#07AEE7" transform="translate(173,128)"/>
<path d="M0 0 C1.4606285 2.64738916 2 3.89448334 2 7 C1.34 7 0.68 7 0 7 C-0.12117188 7.74765625 -0.24234375 8.4953125 -0.3671875 9.265625 C-0.53476563 10.25046875 -0.70234375 11.2353125 -0.875 12.25 C-1.03742188 13.22453125 -1.19984375 14.1990625 -1.3671875 15.203125 C-1.94855848 17.77264117 -2.70840265 19.72071056 -4 22 C-3.01 22.33 -2.02 22.66 -1 23 C-1.33 25.97 -1.66 28.94 -2 32 C-5.68576663 28.31423337 -6.18298516 23.91439391 -6.4375 18.875 C-6.35389057 12.78823383 -4.46758548 4.46758548 0 0 Z M5 1 C5 4 5 4 5 4 Z " fill="#1BD6BE" transform="translate(89,56)"/>
<path d="M0 0 C0.33 0 0.66 0 1 0 C1.05905417 3.29158865 1.09394375 6.58303756 1.125 9.875 C1.14175781 10.7928125 1.15851563 11.710625 1.17578125 12.65625 C1.22051277 19.00812606 0.48851563 24.82610036 -1 31 C-2.32 31.33 -3.64 31.66 -5 32 C-5.103125 33.258125 -5.20625 34.51625 -5.3125 35.8125 C-5.64858808 38.60499657 -5.80025876 39.74433121 -7.5625 42 C-8.2740625 42.495 -8.2740625 42.495 -9 43 C-9.66 42.67 -10.32 42.34 -11 42 C-10.52949219 40.86304688 -10.05898437 39.72609375 -9.57421875 38.5546875 C-4.42149139 25.87020172 -0.91918152 13.75602686 0 0 Z " fill="#E8F4FA" transform="translate(224,120)"/>
<path d="M0 0 C0.8971875 0.26554688 1.794375 0.53109375 2.71875 0.8046875 C12.11421798 3.46414848 21.29021938 5.03029786 31 6 C31 6.33 31 6.66 31 7 C26.33692986 7.04937279 21.67401127 7.08570627 17.01074219 7.10986328 C15.42380117 7.11993188 13.83687875 7.13358767 12.25 7.15087891 C9.97130753 7.17509001 7.69285994 7.18647422 5.4140625 7.1953125 C4.70255035 7.20563507 3.99103821 7.21595764 3.25796509 7.22659302 C1.50368335 7.22699422 -0.24996709 7.12202209 -2 7 C-2.66 6.34 -3.32 5.68 -4 5 C-2.68 3.35 -1.36 1.7 0 0 Z " fill="#EFFAF9" transform="translate(73,218)"/>
<path d="M0 0 C2.31 0 4.62 0 7 0 C5.44850309 9.36775027 3.67934467 18.1845143 0 27 C-0.99384397 23.74741974 -1.04826731 20.96534629 -0.87890625 17.578125 C-0.83056641 16.55332031 -0.78222656 15.52851563 -0.73242188 14.47265625 C-0.67634766 13.40917969 -0.62027344 12.34570312 -0.5625 11.25 C-0.51029297 10.17105469 -0.45808594 9.09210938 -0.40429688 7.98046875 C-0.27480531 5.32000578 -0.13984639 2.65993548 0 0 Z " fill="#0AA2F6" transform="translate(217,128)"/>
<path d="M0 0 C0.042721 1.66611905 0.04063832 3.33382885 0 5 C-0.33 5.33 -0.66 5.66 -1 6 C-3 6 -5 6 -7 6 C-9.81503366 6.45826129 -12.28933163 7.09644388 -15 8 C-15.33 9.98 -15.66 11.96 -16 14 C-19.63 14 -23.26 14 -27 14 C-23.54978875 10.07482461 -19.58411316 7.84807921 -15.0625 5.375 C-14.35931641 4.98054687 -13.65613281 4.58609375 -12.93164062 4.1796875 C-2.8394533 -1.41972665 -2.8394533 -1.41972665 0 0 Z " fill="#0CD9AE" transform="translate(72,9)"/>
<path d="M0 0 C2.97 0 5.94 0 9 0 C4.65195373 7.30471774 -0.84418439 12.33367567 -9 15 C-9.99 14.67 -10.98 14.34 -12 14 C-11.01 13.67 -10.02 13.34 -9 13 C-9 12.01 -9 11.02 -9 10 C-9.99 9.67 -10.98 9.34 -12 9 C-11 8 -11 8 -8.93359375 7.90234375 C-7.69802734 7.91974609 -7.69802734 7.91974609 -6.4375 7.9375 C-5.61121094 7.94652344 -4.78492187 7.95554687 -3.93359375 7.96484375 C-3.29550781 7.97644531 -2.65742187 7.98804687 -2 8 C-1.34 5.36 -0.68 2.72 0 0 Z " fill="#08C0CD" transform="translate(129,89)"/>
<path d="M0 0 C0.66 0.33 1.32 0.66 2 1 C1.67 1.99 1.34 2.98 1 4 C-2.5625 5.6875 -2.5625 5.6875 -6 7 C-6 7.66 -6 8.32 -6 9 C-15.57 9 -25.14 9 -35 9 C-35 8.67 -35 8.34 -35 8 C-33.5459375 7.87044922 -33.5459375 7.87044922 -32.0625 7.73828125 C-21.86814056 6.71102223 -12.66421519 4.35384493 -3 1 C-2.01 0.67 -1.02 0.34 0 0 Z " fill="#EFF9FA" transform="translate(155,216)"/>
<path d="M0 0 C0.33 0 0.66 0 1 0 C1.0270043 1.45823212 1.04639787 2.91660675 1.0625 4.375 C1.07410156 5.18710937 1.08570313 5.99921875 1.09765625 6.8359375 C1 9 1 9 0 11 C-0.66 11 -1.32 11 -2 11 C-1.67 11.99 -1.34 12.98 -1 14 C-1.33 14.66 -1.66 15.32 -2 16 C-3.32 16.33 -4.64 16.66 -6 17 C-6.66 20.63 -7.32 24.26 -8 28 C-8.99 28 -9.98 28 -11 28 C-10.45957211 22.40584104 -8.95473019 17.96767468 -6.625 12.875 C-6.32078125 12.18535156 -6.0165625 11.49570313 -5.703125 10.78515625 C-4.02683896 7.03858531 -2.28018136 3.42693923 0 0 Z " fill="#18EF99" transform="translate(15,56)"/>
<path d="M0 0 C1.80307617 0.00483398 1.80307617 0.00483398 3.64257812 0.00976562 C4.88845703 0.01814453 6.13433594 0.02652344 7.41796875 0.03515625 C8.68318359 0.03966797 9.94839844 0.04417969 11.25195312 0.04882812 C14.36983985 0.06059374 17.48763008 0.07703353 20.60546875 0.09765625 C20.60546875 0.42765625 20.60546875 0.75765625 20.60546875 1.09765625 C18.75695312 1.37029297 18.75695312 1.37029297 16.87109375 1.6484375 C7.6397452 3.0399996 -1.3964893 4.56527319 -10.39453125 7.09765625 C-10.72453125 6.43765625 -11.05453125 5.77765625 -11.39453125 5.09765625 C-10.40453125 4.43765625 -9.41453125 3.77765625 -8.39453125 3.09765625 C-9.38453125 2.43765625 -10.37453125 1.77765625 -11.39453125 1.09765625 C-7.53246051 0.18948827 -3.96304469 -0.0187822 0 0 Z " fill="#EAF8F8" transform="translate(83.39453125,-0.09765625)"/>
<path d="M0 0 C1.02852708 3.08558124 1 4.77356651 1 8 C-4.61 8 -10.22 8 -16 8 C-16 6.02 -16 4.04 -16 2 C-10.72 2 -5.44 2 0 2 C0 1.34 0 0.68 0 0 Z " fill="#02E0A4" transform="translate(55,176)"/>
<path d="M0 0 C2.97 0 5.94 0 9 0 C9 0.99 9 1.98 9 3 C9.66 3 10.32 3 11 3 C12.04005702 6.38018531 12.08004482 9.4780279 12 13 C11.01 13.33 10.02 13.66 9 14 C5.125 8.375 5.125 8.375 4 5 C1.99983534 3.79117904 1.99983534 3.79117904 0 3 C0 2.01 0 1.02 0 0 Z " fill="#07BAD9" transform="translate(140,40)"/>
<path d="M0 0 C0 0.99 0 1.98 0 3 C-9.405 3.495 -9.405 3.495 -19 4 C-18.67 3.34 -18.34 2.68 -18 2 C-19.32 1.34 -20.64 0.68 -22 0 C-19.73139163 -0.5304408 -17.46001511 -1.04905434 -15.1875 -1.5625 C-13.29064453 -1.99755859 -13.29064453 -1.99755859 -11.35546875 -2.44140625 C-6.92369654 -3.17917508 -4.06648064 -1.64857323 0 0 Z " fill="#07CFBA" transform="translate(104,4)"/>
<path d="M0 0 C-0.66 0.66 -1.32 1.32 -2 2 C-4.72869407 1.96712417 -7.2966618 1.43602229 -10 1 C-10 0.34 -10 -0.32 -10 -1 C-18.59599799 -1.22588024 -26.60182604 -0.91958262 -35 1 C-34.34 0.34 -33.68 -0.32 -33 -1 C-36.96 -1.33 -40.92 -1.66 -45 -2 C-45 -2.33 -45 -2.66 -45 -3 C-31.04336634 -6.3357155 -13.63928222 -3.97812398 0 0 Z " fill="#11C7C6" transform="translate(144,4)"/>
<path d="M0 0 C4.85466286 0.44133299 8.48550017 2.73113725 12 6 C12.33 6.99 12.66 7.98 13 9 C13.66 9.66 14.32 10.32 15 11 C12.25 11.25 12.25 11.25 9 11 C7.66666667 9.66666667 6.33333333 8.33333333 5 7 C1.832168 6.66551741 1.832168 6.66551741 -1 7 C-0.67 4.69 -0.34 2.38 0 0 Z " fill="#08B2E3" transform="translate(169,17)"/>
<path d="M0 0 C7.62595318 -0.45755719 14.6029854 1.25463701 22 3 C21.67 3.99 21.34 4.98 21 6 C14.07 5.67 7.14 5.34 0 5 C0 4.34 0 3.68 0 3 C0.99 2.67 1.98 2.34 3 2 C2.01 1.34 1.02 0.68 0 0 Z " fill="#02C1D2" transform="translate(120,2)"/>
<path d="M0 0 C1.13115234 0.07831055 1.13115234 0.07831055 2.28515625 0.15820312 C4.1487937 0.28795004 6.01194996 0.42457488 7.875 0.5625 C7.875 1.5525 7.875 2.5425 7.875 3.5625 C4.905 3.0675 4.905 3.0675 1.875 2.5625 C2.535 3.8825 3.195 5.2025 3.875 6.5625 C-3.07523264 5.91596673 -9.50677303 3.70222752 -16.125 1.5625 C-16.125 1.2325 -16.125 0.9025 -16.125 0.5625 C-15.17625 0.583125 -14.2275 0.60375 -13.25 0.625 C-8.7049562 0.53409912 -4.75399568 -0.35716548 0 0 Z " fill="#10D3B7" transform="translate(88.125,216.4375)"/>
<path d="M0 0 C0.33 0 0.66 0 1 0 C1.10957031 1.01578125 1.21914063 2.0315625 1.33203125 3.078125 C2.29591003 11.58513251 3.65372062 19.7410966 6 28 C5.34 28 4.68 28 4 28 C3.67 29.32 3.34 30.64 3 32 C2.34 32 1.68 32 1 32 C-0.13917218 28.58248347 -0.11338481 25.96512063 -0.09765625 22.36328125 C-0.09443359 21.06455078 -0.09121094 19.76582031 -0.08789062 18.42773438 C-0.07953531 17.05598892 -0.07107037 15.68424413 -0.0625 14.3125 C-0.05748335 12.92903805 -0.05292073 11.54557437 -0.04882812 10.16210938 C-0.03702529 6.77469605 -0.02056019 3.38736967 0 0 Z " fill="#E9FCF3" transform="translate(0,120)"/>
<path d="M0 0 C2.63804589 -0.39397335 2.63804589 -0.39397335 5 -1 C5.36923077 3.55384615 5.36923077 3.55384615 3.5 5.8125 C3.005 6.204375 2.51 6.59625 2 7 C-2.23429756 5.68938409 -6.07407404 4.05643741 -10 2 C-10 1.34 -10 0.68 -10 0 C-3.375 -1.125 -3.375 -1.125 0 0 Z " fill="#0CDAB0" transform="translate(67,209)"/>
<path d="M0 0 C1.75299712 0.59541454 3.50229748 1.20171914 5.25 1.8125 C6.22453125 2.14894531 7.1990625 2.48539062 8.203125 2.83203125 C10.85948302 3.94132042 12.79689939 5.1693283 15 7 C11.27147551 7.95876344 8.73238306 7.82941846 5 7 C4.67 7.33 4.34 7.66 4 8 C2.33382885 8.04063832 0.66611905 8.042721 -1 8 C-1 5.16032769 -0.59732819 2.76264289 0 0 Z " fill="#08BFCF" transform="translate(129,120)"/>
<path d="M0 0 C8.58 0 17.16 0 26 0 C25.01 0.495 25.01 0.495 24 1 C24 1.66 24 2.32 24 3 C26.64 2.67 29.28 2.34 32 2 C31.34 3.32 30.68 4.64 30 6 C25.70598597 5.32336749 21.48922854 4.45910148 17.25 3.5 C11.50419072 2.24958503 5.86476585 1.39188528 0 1 C0 0.67 0 0.34 0 0 Z " fill="#E5F6F8" transform="translate(120,0)"/>
<path d="M0 0 C0.66 0.33 1.32 0.66 2 1 C1.80664062 1.6084375 1.61328125 2.216875 1.4140625 2.84375 C-1.05214754 11.1458432 -2.08491059 19.41969108 -3 28 C-3.33 28 -3.66 28 -4 28 C-4 19.09 -4 10.18 -4 1 C-2.68 1.33 -1.36 1.66 0 2 C0 1.34 0 0.68 0 0 Z " fill="#EDFCF3" transform="translate(4,76)"/>
<path d="M0 0 C1.66666667 0 3.33333333 0 5 0 C5 0.66 5 1.32 5 2 C5.66 2 6.32 2 7 2 C7.33 3.65 7.66 5.3 8 7 C10.31 7.66 12.62 8.32 15 9 C14.01 9.495 14.01 9.495 13 10 C12.67 10.99 12.34 11.98 12 13 C6.78220912 11.57696612 3.37194736 8.0699042 0 4 C-0.33 3.01 -0.66 2.02 -1 1 C-0.67 0.67 -0.34 0.34 0 0 Z M10 9 C10 9.66 10 10.32 10 11 C10.66 10.67 11.32 10.34 12 10 C11.34 9.67 10.68 9.34 10 9 Z " fill="#0FD0BC" transform="translate(88,88)"/>
<path d="M0 0 C0.66 0.33 1.32 0.66 2 1 C2 3.31 2 5.62 2 8 C2.66 8 3.32 8 4 8 C4.02688151 9.64574566 4.04634123 11.29161413 4.0625 12.9375 C4.07410156 13.85402344 4.08570313 14.77054688 4.09765625 15.71484375 C4 18 4 18 3 19 C1.23252271 19.12562235 -0.54060292 19.17576558 -2.3125 19.1875 C-3.27800781 19.20167969 -4.24351562 19.21585938 -5.23828125 19.23046875 C-8 19 -8 19 -12 17 C-7.71 17 -3.42 17 1 17 C0.67 11.39 0.34 5.78 0 0 Z " fill="#26B4E7" transform="translate(184,160)"/>
<path d="M0 0 C0.53625 0.165 1.0725 0.33 1.625 0.5 C4.45886009 1.09660212 7.1119806 1.0656368 10 1 C9.67 1.99 9.34 2.98 9 4 C5.3962102 5.52160014 2.94779314 6 -1 6 C-1 5.34 -1 4.68 -1 4 C-3.64 4.66 -6.28 5.32 -9 6 C-9 5.34 -9 4.68 -9 4 C-7.35 4 -5.7 4 -4 4 C-4 3.34 -4 2.68 -4 2 C-2.68 2 -1.36 2 0 2 C0 1.34 0 0.68 0 0 Z " fill="#08BED6" transform="translate(137,216)"/>
<path d="M0 0 C1.65 0 3.3 0 5 0 C4.3503125 1.85625 4.3503125 1.85625 3.6875 3.75 C1.78947104 9.41697218 0.38609152 15.19021215 -1 21 C-1.33 21 -1.66 21 -2 21 C-2 16.38 -2 11.76 -2 7 C-1.34 7 -0.68 7 0 7 C0 4.69 0 2.38 0 0 Z " fill="#0CE2A0" transform="translate(42,144)"/>
<path d="M0 0 C2.30465234 2.96213574 4.27590448 6.02152757 6.1875 9.25 C6.71730469 10.14203125 7.24710937 11.0340625 7.79296875 11.953125 C8.19128906 12.62859375 8.58960937 13.3040625 9 14 C6.69 14 4.38 14 2 14 C0.09391902 10.78817851 -0.22266247 8.46117397 -0.125 4.75 C-0.09792969 3.41195312 -0.09792969 3.41195312 -0.0703125 2.046875 C-0.04710938 1.37140625 -0.02390625 0.6959375 0 0 Z " fill="#13D7B2" transform="translate(72,90)"/>
<path d="M0 0 C0.5625 1.9375 0.5625 1.9375 1 4 C0 5 0 5 -1.890625 5.0625 C-2.66921875 5.041875 -3.4478125 5.02125 -4.25 5 C-7.64832472 4.95664019 -10.68830979 5.14537027 -14 6 C-14 5.34 -14 4.68 -14 4 C-12.42466914 3.13116294 -10.83935491 2.28040932 -9.25 1.4375 C-8.36828125 0.96183594 -7.4865625 0.48617187 -6.578125 -0.00390625 C-3.79298812 -1.07998186 -2.73019786 -1.06528748 0 0 Z " fill="#0DD1B8" transform="translate(95,122)"/>
<path d="M0 0 C4.94515667 2.62711448 8.87775489 6.26645294 13 10 C11.68 10.33 10.36 10.66 9 11 C9 10.01 9 9.02 9 8 C5.37 8 1.74 8 -2 8 C-1.484375 7.236875 -0.96875 6.47375 -0.4375 5.6875 C0.2740625 4.3571875 0.2740625 4.3571875 1 3 C0.67 2.01 0.34 1.02 0 0 Z " fill="#15ADE9" transform="translate(181,24)"/>
<path d="M0 0 C0.928125 0.2784375 0.928125 0.2784375 1.875 0.5625 C4.04160178 1.23686176 4.04160178 1.23686176 6 0 C8.04055005 -0.07065617 10.08334257 -0.08421976 12.125 -0.0625 C13.22070312 -0.05347656 14.31640625 -0.04445313 15.4453125 -0.03515625 C16.28835937 -0.02355469 17.13140625 -0.01195313 18 0 C18 0.33 18 0.66 18 1 C17.34773438 1.18175781 16.69546875 1.36351562 16.0234375 1.55078125 C11.05508972 2.97973083 6.59439194 4.58794423 2 7 C1.34 7 0.68 7 0 7 C0 4.69 0 2.38 0 0 Z " fill="#09D0B9" transform="translate(88,32)"/>
<path d="M0 0 C2.70329311 3.29590691 4.41900085 6.75613519 6.1875 10.625 C6.71730469 11.77226563 7.24710938 12.91953125 7.79296875 14.1015625 C9 17 9 17 9 19 C8.01 19 7.02 19 6 19 C6 17.68 6 16.36 6 15 C4.68 15 3.36 15 2 15 C2.33 12.36 2.66 9.72 3 7 C2.34 7 1.68 7 1 7 C1 6.01 1 5.02 1 4 C0.34 3.67 -0.32 3.34 -1 3 C-0.67 2.01 -0.34 1.02 0 0 Z " fill="#15A5F3" transform="translate(210,57)"/>
<path d="M0 0 C0 0.66 0 1.32 0 2 C-0.99 2.33 -1.98 2.66 -3 3 C-3.33 4.98 -3.66 6.96 -4 9 C-7.63 9 -11.26 9 -15 9 C-11.19160575 4.71555647 -5.92978831 0 0 0 Z " fill="#13E1AC" transform="translate(60,14)"/>
<path d="M0 0 C0.79148437 -0.01417969 1.58296875 -0.02835937 2.3984375 -0.04296875 C4.625 0.1875 4.625 0.1875 7.625 2.1875 C6.02733897 3.05377399 4.42160056 3.90516465 2.8125 4.75 C1.91917969 5.22566406 1.02585937 5.70132813 0.10546875 6.19140625 C-2.375 7.1875 -2.375 7.1875 -5.375 6.1875 C-4.385 5.8575 -3.395 5.5275 -2.375 5.1875 C-2.375 4.1975 -2.375 3.2075 -2.375 2.1875 C-3.365 1.8575 -4.355 1.5275 -5.375 1.1875 C-3.79539731 -0.39210269 -2.17963184 0.01763456 0 0 Z " fill="#15C7CB" transform="translate(122.375,96.8125)"/>
<path d="M0 0 C0.66 0.33 1.32 0.66 2 1 C1.67 1.66 1.34 2.32 1 3 C1.66 3 2.32 3 3 3 C3.33 2.34 3.66 1.68 4 1 C3.773125 1.53625 3.54625 2.0725 3.3125 2.625 C2.73164494 7.03949846 5.63306694 10.4496004 8 14 C7.625 16.1875 7.625 16.1875 7 18 C6.52949219 17.18015625 6.05898437 16.3603125 5.57421875 15.515625 C4.95160156 14.43796875 4.32898438 13.3603125 3.6875 12.25 C3.07261719 11.18265625 2.45773438 10.1153125 1.82421875 9.015625 C0.32904649 6.54394837 -1.21376516 4.26439616 -3 2 C-2.01 1.34 -1.02 0.68 0 0 Z " fill="#15B3E0" transform="translate(171,128)"/>
<path d="M0 0 C2.97 0.495 2.97 0.495 6 1 C4.63408831 4.54243452 3.09068516 7.92627929 1.375 11.3125 C0.92898437 12.19550781 0.48296875 13.07851563 0.0234375 13.98828125 C-0.31429687 14.65214844 -0.65203125 15.31601562 -1 16 C-1.33 16 -1.66 16 -2 16 C-2.2425775 11.87618245 -1.29569851 8.88709552 0 5 C0.16857483 2.24934768 0.16857483 2.24934768 0 0 Z " fill="#11D6B0" transform="translate(72,48)"/>
<path d="M0 0 C2.23551759 3.35327639 2.17283528 3.90743657 1.625 7.6875 C1.45871094 8.89986328 1.45871094 8.89986328 1.2890625 10.13671875 C1.19367188 10.75160156 1.09828125 11.36648437 1 12 C-1.64 12 -4.28 12 -7 12 C-4.69 8.04 -2.38 4.08 0 0 Z " fill="#10B9D4" transform="translate(151,92)"/>
<path d="M0 0 C2.08343904 2.50012684 3.71433305 5.14195318 5.25 8 C5.60578125 8.66 5.9615625 9.32 6.328125 10 C7.13384316 12.39841683 6.81998065 13.64518377 6 16 C5.34 14.68 4.68 13.36 4 12 C2.68 12.33 1.36 12.66 0 13 C0 12.01 0 11.02 0 10 C0.66 10 1.32 10 2 10 C1.34 9.01 0.68 8.02 0 7 C-0.07905064 4.66800612 -0.08798769 2.33167378 0 0 Z " fill="#16B7DC" transform="translate(162,144)"/>
<path d="M0 0 C0.66 0 1.32 0 2 0 C2 0.66 2 1.32 2 2 C2.99 2 3.98 2 5 2 C4.67 3.32 4.34 4.64 4 6 C2.4375 6.75 2.4375 6.75 0 7 C-2.50286409 5.86915563 -4.67007722 4.47860484 -7 3 C-6.67 2.34 -6.34 1.68 -6 1 C-3.525 1.99 -3.525 1.99 -1 3 C-0.67 2.01 -0.34 1.02 0 0 Z " fill="#EFFAF9" transform="translate(171,10)"/>
<path d="M0 0 C0.66 0 1.32 0 2 0 C3.125 7.75 3.125 7.75 2 10 C-3.28 10 -8.56 10 -14 10 C-14 8.02 -14 6.04 -14 4 C-13.67 4 -13.34 4 -13 4 C-13 5.65 -13 7.3 -13 9 C-8.71 9 -4.42 9 0 9 C0 6.03 0 3.06 0 0 Z " fill="#36E5B5" transform="translate(53,168)"/>
<path d="M0 0 C2.18697502 2.79624958 3.99152813 5.63307872 5.6875 8.75 C6.12449219 9.54921875 6.56148437 10.3484375 7.01171875 11.171875 C7.33785156 11.77515625 7.66398437 12.3784375 8 13 C6.68 13.33 5.36 13.66 4 14 C3.34 12.02 2.68 10.04 2 8 C1.01 8.33 0.02 8.66 -1 9 C-1.80967438 6.08517222 -2.21845993 4.53886783 -1.0625 1.6875 C-0.711875 1.130625 -0.36125 0.57375 0 0 Z " fill="#E9FCF6" transform="translate(10,160)"/>
<path d="M0 0 C0 0.66 0 1.32 0 2 C-0.99 2 -1.98 2 -3 2 C-3.268125 2.639375 -3.53625 3.27875 -3.8125 3.9375 C-5 6 -5 6 -8 7 C-8 7.66 -8 8.32 -8 9 C-9.98 9 -11.96 9 -14 9 C-10.44113418 5.11760093 -5.62095916 0 0 0 Z " fill="#1BD0BE" transform="translate(104,47)"/>
<path d="M0 0 C1.65 0.33 3.3 0.66 5 1 C1.79239749 4.80635497 -1.40746109 8.54563567 -5 12 C-4.855625 11.46375 -4.71125 10.9275 -4.5625 10.375 C-3.90546252 7.60084173 -3.44780052 4.81474612 -3 2 C-2.01 2 -1.02 2 0 2 C0 1.34 0 0.68 0 0 Z " fill="#E7F9F4" transform="translate(27,33)"/>
<path d="M0 0 C2 1 2 1 2.625 2.625 C3.3069409 6.94395903 3.38635713 10.84092862 2 15 C1.34 15 0.68 15 0 15 C-0.19390729 12.68802845 -0.37996367 10.3753971 -0.5625 8.0625 C-0.71912109 6.13083984 -0.71912109 6.13083984 -0.87890625 4.16015625 C-0.91886719 3.11730469 -0.95882812 2.07445313 -1 1 C-0.67 0.67 -0.34 0.34 0 0 Z " fill="#04B7E3" transform="translate(157,67)"/>
<path d="M0 0 C2.18975773 3.28463659 2.99806563 6.20696275 4 10 C2.35 10.33 0.7 10.66 -1 11 C-2.08597621 6.65609517 -1.99695254 3.99390508 0 0 Z " fill="#E7F8FA" transform="translate(179,148)"/>
<path d="M0 0 C2.66615182 5.33230363 4.68785477 9.946878 4 16 C3.01 16.66 2.02 17.32 1 18 C0.67 12.06 0.34 6.12 0 0 Z " fill="#14A5F7" transform="translate(219,78)"/>
<path d="M0 0 C3.3 0 6.6 0 10 0 C10 1.65 10 3.3 10 5 C7.36 5 4.72 5 2 5 C1.34 3.35 0.68 1.7 0 0 Z " fill="#04E3A3" transform="translate(38,192)"/>
<path d="M0 0 C1.15227823 0.76116551 2.2966386 1.53432693 3.4375 2.3125 C4.07558594 2.74175781 4.71367187 3.17101563 5.37109375 3.61328125 C7 5 7 5 8 8 C5.69 7.67 3.38 7.34 1 7 C0.34 5.02 -0.32 3.04 -1 1 C-0.67 0.67 -0.34 0.34 0 0 Z " fill="#ECF8F7" transform="translate(137,40)"/>
<path d="M0 0 C0.66 0 1.32 0 2 0 C1.34 1.98 0.68 3.96 0 6 C-0.66 5.67 -1.32 5.34 -2 5 C-4.11683841 5.89163577 -4.11683841 5.89163577 -6 7 C-6 5.35 -6 3.7 -6 2 C-3 1 -3 1 0 2 C0 1.34 0 0.68 0 0 Z M-4 7 C-4 7.99 -4 8.98 -4 10 C-4.99 9.67 -5.98 9.34 -7 9 C-6.01 8.34 -5.02 7.68 -4 7 Z " fill="#02D1BC" transform="translate(96,54)"/>
<path d="M0 0 C3.21039243 2.14026162 3.76444483 3.08544035 5.25 6.5 C5.60578125 7.2940625 5.9615625 8.088125 6.328125 8.90625 C7 11 7 11 6 13 C5.67 12.67 5.34 12.34 5 12 C4.34 12.66 3.68 13.32 3 14 C0.88838269 4.58997722 0.88838269 4.58997722 0 0 Z " fill="#1DC4D2" transform="translate(134,55)"/>
<path d="M0 0 C1.32 0.66 2.64 1.32 4 2 C4 1.34 4 0.68 4 0 C5.32 0.33 6.64 0.66 8 1 C7.34 2.98 6.68 4.96 6 7 C3.36 5.35 0.72 3.7 -2 2 C-1.34 1.34 -0.68 0.68 0 0 Z " fill="#E8F7F8" transform="translate(176,17)"/>
<path d="M0 0 C-0.33 0.99 -0.66 1.98 -1 3 C-5.36228979 5.028972 -8.35656242 5.10558038 -13 4 C-10.81006393 1.81006393 -9.4012702 1.27802011 -6.5 0.3125 C-5.7059375 0.04050781 -4.911875 -0.23148438 -4.09375 -0.51171875 C-2 -1 -2 -1 0 0 Z " fill="#E4F4F9" transform="translate(157,217)"/>
<path d="M0 0 C1.95167729 2.92751593 2.36553384 4.0847289 2.75 7.4375 C2.84796875 8.19933594 2.9459375 8.96117187 3.046875 9.74609375 C2.99311664 12.33097489 2.30508837 13.79640849 1 16 C0.01879536 12.94736336 0.01879536 11.05263664 1 8 C0.34 8 -0.32 8 -1 8 C-0.67 5.36 -0.34 2.72 0 0 Z " fill="#12B5E3" transform="translate(169,160)"/>
<path d="M0 0 C2.64 0 5.28 0 8 0 C5.42215154 2.64752004 3.08351902 4.94432065 0 7 C0 4.69 0 2.38 0 0 Z " fill="#0FACE7" transform="translate(184,192)"/>
<path d="M0 0 C1.98 0 3.96 0 6 0 C6 0.66 6 1.32 6 2 C2.04 3.98 -1.92 5.96 -6 8 C-6 7.34 -6 6.68 -6 6 C-5.34 6 -4.68 6 -4 6 C-4 5.01 -4 4.02 -4 3 C-2.68 2.34 -1.36 1.68 0 1 C0 0.67 0 0.34 0 0 Z " fill="#E7FBF8" transform="translate(57,10)"/>
<path d="M0 0 C3.96 1.98 3.96 1.98 8 4 C6 6 6 6 2.875 6.125 C1.451875 6.063125 1.451875 6.063125 0 6 C0 4 0 2 0 0 Z " fill="#E5F4F9" transform="translate(147,113)"/>
<path d="M0 0 C1.98 0.495 1.98 0.495 4 1 C4 1.66 4 2.32 4 3 C4.99 3.33 5.98 3.66 7 4 C7 5.65 7 7.3 7 9 C6.01 8.34 5.02 7.68 4 7 C4 6.34 4 5.68 4 5 C2.68 4.34 1.36 3.68 0 3 C0 2.01 0 1.02 0 0 Z " fill="#16BED2" transform="translate(140,40)"/>
<path d="M0 0 C0.66 0.33 1.32 0.66 2 1 C2 2.98 2 4.96 2 7 C0.68 7.33 -0.64 7.66 -2 8 C-2.66 7.01 -3.32 6.02 -4 5 C-2.68 3.35 -1.36 1.7 0 0 Z " fill="#F0F7F8" transform="translate(205,176)"/>
<path d="M0 0 C1.32 0.33 2.64 0.66 4 1 C3.67 3.97 3.34 6.94 3 10 C-0.00617269 6.99382731 0.40414684 4.17618402 0 0 Z " fill="#09D2B6" transform="translate(84,78)"/>
<path d="M0 0 C0.99 0 1.98 0 3 0 C3 0.66 3 1.32 3 2 C3.66 2.33 4.32 2.66 5 3 C4.67 3.66 4.34 4.32 4 5 C3.34 5 2.68 5 2 5 C1.67 6.32 1.34 7.64 1 9 C-1 6 -1 6 -0.625 2.8125 C-0.41875 1.884375 -0.2125 0.95625 0 0 Z " fill="#02F28D" transform="translate(1,108)"/>
<path d="M0 0 C1.32 0.33 2.64 0.66 4 1 C1.525 5.455 1.525 5.455 -1 10 C-1.66 10 -2.32 10 -3 10 C-3 8.02 -3 6.04 -3 4 C-2.34 4 -1.68 4 -1 4 C-0.67 2.68 -0.34 1.36 0 0 Z " fill="#E8FDF4" transform="translate(13,53)"/>
<path d="M0 0 C0.66 0.33 1.32 0.66 2 1 C1.34 1.66 0.68 2.32 0 3 C-0.6425235 5.06874034 -0.6425235 5.06874034 -1 7 C-2.32 7 -3.64 7 -5 7 C-5 7.66 -5 8.32 -5 9 C-6.32 8.67 -7.64 8.34 -9 8 C-6.03 5.36 -3.06 2.72 0 0 Z " fill="#1AE1A4" transform="translate(41,25)"/>
<path d="M0 0 C0.125 2.875 0.125 2.875 0 6 C-0.66 6.66 -1.32 7.32 -2 8 C-6 3.25 -6 3.25 -6 1 C-1.125 0 -1.125 0 0 0 Z " fill="#E5F6FC" transform="translate(206,40)"/>
<path d="M0 0 C1.65 0 3.3 0 5 0 C5 3 5 3 2.5 5.6875 C1.675 6.450625 0.85 7.21375 0 8 C0 5.36 0 2.72 0 0 Z " fill="#0CA8EC" transform="translate(192,184)"/>
<path d="M0 0 C0.33 0 0.66 0 1 0 C1 3.96 1 7.92 1 12 C0.67 11.34 0.34 10.68 0 10 C-0.66 10 -1.32 10 -2 10 C-2.25 3.375 -2.25 3.375 0 0 Z " fill="#00F591" transform="translate(5,128)"/>
<path d="M0 0 C0 0.66 0 1.32 0 2 C-5.59306069 4.05459372 -8.40693931 4.05459372 -14 2 C-14 1.67 -14 1.34 -14 1 C-12.41693353 0.83081732 -10.83353281 0.66476064 -9.25 0.5 C-8.36828125 0.4071875 -7.4865625 0.314375 -6.578125 0.21875 C-4 0 -4 0 0 0 Z " fill="#16C6D0" transform="translate(136,32)"/>
<path d="M0 0 C3.37462715 0.54723683 5.08235 1.0549 8 3 C8.6875 5.625 8.6875 5.625 9 8 C7.68388323 7.04663979 6.37221039 6.08714226 5.0625 5.125 C4.33160156 4.59132812 3.60070313 4.05765625 2.84765625 3.5078125 C1 2 1 2 0 0 Z " fill="#1CE6A6" transform="translate(31,190)"/>
<path d="M0 0 C-0.66 1.32 -1.32 2.64 -2 4 C-6.875 2.25 -6.875 2.25 -8 0 C-4.71303767 -0.79953138 -3.28976808 -1.09658936 0 0 Z " fill="#14DFAD" transform="translate(56,204)"/>
<path d="M0 0 C-0.99 0.33 -1.98 0.66 -3 1 C-3 1.99 -3 2.98 -3 4 C-3.99 4.33 -4.98 4.66 -6 5 C-6.33 3.35 -6.66 1.7 -7 0 C-4.3333581 -1.33332095 -2.83319697 -0.67102033 0 0 Z " fill="#03A2F3" transform="translate(216,156)"/>
<path d="M0 0 C1.98 1.65 3.96 3.3 6 5 C5.67 5.66 5.34 6.32 5 7 C3.68 6.67 2.36 6.34 1 6 C0.67 4.02 0.34 2.04 0 0 Z " fill="#DFFAF4" transform="translate(34,193)"/>
<path d="M0 0 C1.32 0.66 2.64 1.32 4 2 C1.69 3.65 -0.62 5.3 -3 7 C-3 3 -3 3 -1.5 1.25 C-1.005 0.8375 -0.51 0.425 0 0 Z " fill="#18DCB0" transform="translate(65,117)"/>
<path d="M0 0 C1.32 1.32 2.64 2.64 4 4 C2.02 4.99 2.02 4.99 0 6 C-0.66 5.34 -1.32 4.68 -2 4 C-1 1 -1 1 0 0 Z " fill="#12D4B8" transform="translate(82,105)"/>
<path d="M0 0 C0.99 0 1.98 0 3 0 C2.125 5.75 2.125 5.75 1 8 C0.34 8 -0.32 8 -1 8 C-0.67 5.36 -0.34 2.72 0 0 Z " fill="#11BDCF" transform="translate(138,80)"/>
<path d="M0 0 C2.875 -0.1875 2.875 -0.1875 6 0 C6.66 0.99 7.32 1.98 8 3 C7.34 3.66 6.68 4.32 6 5 C3.98079663 3.69593116 1.98075027 2.36176581 0 1 C0 0.67 0 0.34 0 0 Z " fill="#E7F9FA" transform="translate(127,49)"/>
<path d="M0 0 C2.97 0.99 5.94 1.98 9 3 C5 4 5 4 2 4 C1.01 4.495 1.01 4.495 0 5 C0 3.35 0 1.7 0 0 Z " fill="#13C1C7" transform="translate(120,47)"/>
<path d="M0 0 C1.32 1.32 2.64 2.64 4 4 C3.67 4.99 3.34 5.98 3 7 C1.35 5.35 -0.3 3.7 -2 2 C-1.34 2 -0.68 2 0 2 C0 1.34 0 0.68 0 0 Z " fill="#E1F6FA" transform="translate(196,33)"/>
<path d="M0 0 C2.97 0.495 2.97 0.495 6 1 C4.35 2.65 2.7 4.3 1 6 C0.67 4.02 0.34 2.04 0 0 Z " fill="#E9F7F7" transform="translate(35,24)"/>
<path d="M0 0 C4.875 3.625 4.875 3.625 6 7 C5.01 7.495 5.01 7.495 4 8 C1.10067643 5.60490662 0.49831724 3.68754757 0 0 Z " fill="#1CB9D7" transform="translate(155,136)"/>
<path d="M0 0 C0.99 0.33 1.98 0.66 3 1 C3 2.32 3 3.64 3 5 C1.35 4.67 -0.3 4.34 -2 4 C-1.34 2.68 -0.68 1.36 0 0 Z " fill="#0DB5E7" transform="translate(164,120)"/>
<path d="M0 0 C1.99097846 2.98646769 2.94124926 5.59687262 4 9 C3.01 9 2.02 9 1 9 C-1.125 2.25 -1.125 2.25 0 0 Z " fill="#20ABF7" transform="translate(215,67)"/>
<path d="M0 0 C1.98 0.495 1.98 0.495 4 1 C2.69593116 3.01920337 1.36176581 5.01924973 0 7 C-0.33 7 -0.66 7 -1 7 C-0.67 4.69 -0.34 2.38 0 0 Z " fill="#0AD0B8" transform="translate(85,64)"/>
<path d="M0 0 C1.65 0 3.3 0 5 0 C5.33 1.65 5.66 3.3 6 5 C3 5 3 5 1.3125 3.625 C0 2 0 2 0 0 Z " fill="#E5F6F7" transform="translate(185,25)"/>
<path d="M0 0 C0.66 0.33 1.32 0.66 2 1 C2 1.66 2 2.32 2 3 C-3.75 2.25 -3.75 2.25 -6 0 C-3.4832097 -1.25839515 -2.62168527 -0.81927665 0 0 Z " fill="#02D6C0" transform="translate(94,219)"/>
<path d="M0 0 C0.66 1.32 1.32 2.64 2 4 C0.625 5.5 0.625 5.5 -1 7 C-1.66 7 -2.32 7 -3 7 C-1.125 2.25 -1.125 2.25 0 0 Z " fill="#DDF2F7" transform="translate(209,169)"/>
<path d="M0 0 C0.66 0 1.32 0 2 0 C2.33 2.64 2.66 5.28 3 8 C0.9375 6.25 0.9375 6.25 -1 4 C-0.75 1.75 -0.75 1.75 0 0 Z " fill="#19E9A0" transform="translate(21,173)"/>
<path d="M0 0 C2.125 0.375 2.125 0.375 4 1 C4 1.66 4 2.32 4 3 C4.99 3 5.98 3 7 3 C7 3.66 7 4.32 7 5 C4.03 4.01 1.06 3.02 -2 2 C-1.34 1.34 -0.68 0.68 0 0 Z " fill="#DBF6F8" transform="translate(135,120)"/>
<path d="M0 0 C0.33 0.99 0.66 1.98 1 3 C1.66 3 2.32 3 3 3 C2.67 4.32 2.34 5.64 2 7 C1.01 7 0.02 7 -1 7 C-0.67 4.69 -0.34 2.38 0 0 Z " fill="#04A2F4" transform="translate(210,61)"/>
<path d="M0 0 C0 0.99 0 1.98 0 3 C-0.763125 2.814375 -1.52625 2.62875 -2.3125 2.4375 C-5.08967375 1.77180827 -5.08967375 1.77180827 -8 3 C-8 2.34 -8 1.68 -8 1 C-5.29120665 -0.35439668 -2.99066732 -0.06501451 0 0 Z " fill="#06B5E1" transform="translate(163,13)"/>
<path d="M0 0 C0 0.66 0 1.32 0 2 C-2.64 2.33 -5.28 2.66 -8 3 C-7.67 2.01 -7.34 1.02 -7 0 C-2.25 -1.125 -2.25 -1.125 0 0 Z " fill="#07BAE7" transform="translate(162,212)"/>
<path d="M0 0 C2.04119788 1.61594832 4.04072937 3.2856382 6 5 C6 5.66 6 6.32 6 7 C5.01 7 4.02 7 3 7 C1.25372522 4.38058783 0.61277612 2.96175123 0 0 Z " fill="#DEF6EF" transform="translate(25,184)"/>
</svg>
